<svg width="5966" height="5966" viewBox="0 0 5966 5966" fill="none" xmlns="http://www.w3.org/2000/svg">
<rect width="5966" height="5966" rx="1041" fill="url(#paint0_radial_86_1242)"/>
<path d="M2606.21 895.668V892H2606.73V895.668H2606.21ZM2606.21 894.232V893.741H2608.18V894.232H2606.21ZM2606.21 892.491V892H2608.64V892.491H2606.21Z" fill="white"/>
<path d="M2608.84 895.668V892H2609.35V895.668H2608.84ZM2608.84 894.232V893.741H2610.8V894.232H2608.84ZM2608.84 892.491V892H2611.26V892.491H2608.84Z" fill="white"/>
<path d="M2611.46 895.668V892H2611.98V895.668H2611.46ZM2611.46 894.232V893.741H2613.42V894.232H2611.46ZM2611.46 892.491V892H2613.89V892.491H2611.46Z" fill="white"/>
<path d="M2614.08 895.668V892H2614.6V895.668H2614.08ZM2614.08 894.232V893.741H2616.05V894.232H2614.08ZM2614.08 892.491V892H2616.51V892.491H2614.08Z" fill="white"/>
<path d="M2616.71 895.668V892H2617.22V895.668H2616.71ZM2616.71 894.232V893.741H2618.67V894.232H2616.71ZM2616.71 892.491V892H2619.13V892.491H2616.71Z" fill="white"/>
<path d="M2619.33 895.668V892H2619.85V895.668H2619.33ZM2619.33 894.232V893.741H2621.29V894.232H2619.33ZM2619.33 892.491V892H2621.76V892.491H2619.33Z" fill="white"/>
<path d="M1853.98 1211.91H2075.57L2233.84 1254.11L2307.7 1296.32L2465.97 1306.88L2571.49 1359.64L2634.8 1433.5L2645.35 1475.71L2592.59 1454.61L2529.28 1422.95L2603.14 1539.02L2624.25 1591.78V1718.41L2582.04 1813.38L2529.28 1876.69H2518.73L2497.63 1718.41L2465.97 1623.44L2423.77 1570.68V1549.58H2402.66L2392.11 1602.34L2328.8 1707.86L2265.49 1792.28H2254.94L2233.84 1602.34L2212.74 1560.13L2159.98 1665.65L2086.12 1750.07H2001.71L2012.26 1707.86V1633.99L1938.4 1760.62L1832.88 1866.14L1759.02 1918.9L1801.23 1929.45L1822.33 2119.39L1832.88 2161.6L1843.43 2330.44L1885.64 2340.99L1959.5 2425.41L2001.71 2457.06L1980.6 2562.58V2647L2022.81 2710.31V2826.39L1948.95 2763.08L1843.43 2657.55L1727.37 2562.58L1653.5 2499.27L1674.61 2372.64H1653.5V2393.75H1632.4V2414.85L1590.2 2393.75L1569.09 2372.64L1537.44 2478.17L1484.68 2467.61L1421.37 2414.85L1389.72 2362.09L1368.61 2288.23L1336.96 2330.44L1315.85 2393.75L1284.2 2362.09L1273.65 2330.44V2193.26L1315.85 2108.84L1231.44 2129.94H1157.58L1115.38 2119.39V2098.29L1189.24 2056.08L1263.1 1971.66L1315.85 1866.14L1389.72 1581.23L1463.58 1444.05L1558.54 1338.53L1674.61 1264.67L1801.23 1222.46L1853.98 1211.91Z" fill="white"/>
<path d="M1104.82 3406.76H1737.92L1801.23 3448.97L1875.09 3554.49H1927.85L2054.46 3406.76H2212.74L2191.63 3459.52L2117.77 3565.04L2065.02 3733.88L2022.81 3818.29L1959.5 3871.05L1875.09 3902.71L1811.78 3987.13L1695.71 4060.99L1590.2 4092.65L1505.78 4103.2H1347.51L1220.89 4082.1L1094.27 4029.34L1020.41 3966.02L957.103 3860.5L936 3807.74V3638.91L978.206 3533.38L1041.52 3448.97L1104.82 3406.76Z" fill="white"/>
<path d="M2761.42 2467.61L2803.62 2478.17L2835.28 2499.27L2866.93 2467.61L2919.69 2478.17L2961.9 2541.48V2699.76L3035.76 2657.55H3172.93L3194.03 2678.66L3183.48 2731.42L3172.93 2752.52L3225.69 2763.08L3236.24 2815.84L3183.48 2879.15L3120.17 2910.81L3025.21 2921.36L3088.51 2974.12L3130.72 3058.54L3120.17 3153.51L3109.62 3164.06H3046.31L3035.76 3227.37H2972.45L2909.14 3185.16L2835.28 3079.64L2793.07 3164.06L2708.66 3237.92H2655.9L2634.8 3206.27V3174.61H2571.49L2550.39 3153.51V3079.64L2592.59 2995.22L2634.8 2953.01L2497.63 2921.36L2444.87 2879.15L2434.32 2858.04V2794.73L2476.53 2784.18L2465.97 2699.76L2497.63 2668.11L2582.04 2657.55L2677 2689.21L2708.66 2710.31L2698.11 2689.21V2552.03L2740.31 2488.72L2761.42 2467.61Z" fill="white"/>
<path d="M3109.62 1338.53H3215.13L3246.79 1349.08V1549.58H3521.13V1391.29H3637.2V1560.13H3837.68V1401.85H3953.74L3964.29 1412.4V1570.68L4069.81 1581.23V1676.2H3974.85L4006.5 2056.08V2224.91H3858.78L3848.23 2214.36V1676.2L3236.24 1665.65V1887.25L3225.69 2129.94L3215.13 2224.91H3056.86V2077.18L3077.96 1707.86L3088.52 1665.65L2972.45 1655.1V1528.47H3099.07L3109.62 1338.53Z" fill="white"/>
<path d="M2223.29 3997.68H2360.46L2529.28 4018.78L2634.8 4071.54L2655.9 4103.2V4198.17L2613.7 4345.9L2560.94 4430.32L2497.63 4483.08L2381.56 4514.74H2233.84L2138.88 4493.63L2054.46 4440.87L2001.71 4367L1959.5 4208.72V4092.65L2001.71 4050.44L2075.57 4018.78L2223.29 3997.68Z" fill="white"/>
<path d="M2392.11 1693.79L2413.22 1704.34L2423.77 1778.2L2371.01 1799.31V1809.86H2423.77V1883.73L2349.91 1904.83L2339.36 1915.38L2349.91 1897.8L2423.77 1883.73L2413.22 2168.63L2381.56 2253.05L2297.15 2369.13L2223.29 2442.99H2149.43L1991.16 2379.68L1875.09 2305.81L1864.54 2126.43L1843.43 1925.93L1938.4 1852.07L1980.6 1799.31L2022.81 1809.86L1980.6 1852.07L2075.57 1820.41L2096.67 1799.31L2170.53 1809.86L2149.43 1757.1L2202.19 1704.34L2212.74 1757.1V1852.07L2297.15 1809.86L2371.01 1725.44L2392.11 1693.79Z" fill="white"/>
<path d="M1706.26 1771.17H1716.82L1727.37 2172.15L1769.57 2340.99L1801.23 2393.75L1811.78 2372.64L1822.33 2161.6H1832.88L1843.43 2330.44L1885.64 2340.99L1959.5 2425.41L2001.71 2457.06L1980.6 2562.58V2647L2022.81 2710.31V2826.39L1948.95 2763.07L1843.43 2657.55L1727.37 2562.58L1653.51 2499.27L1664.06 2435.96L1674.61 2372.64H1653.51V2393.75H1632.4L1664.06 2224.91L1611.3 2203.81L1547.99 2161.6L1495.23 2056.08V1950.56L1537.44 1887.24L1600.75 1845.04L1674.61 1802.83L1706.26 1771.17Z" fill="white"/>
<path d="M2919.69 1095.83H3014.66L3257.34 1127.49L3573.89 1169.7L4122.57 1211.91L4133.12 1243.56L4090.91 1349.08L4048.71 1359.64L3088.52 1275.22L2972.45 1264.67L2940.79 1211.91L2919.69 1148.59V1095.83Z" fill="white"/>
<path d="M4439.11 2552.03H4534.08L4639.59 2604.79L4724.01 2699.76L4766.21 2805.28L4787.32 2910.81V2974.12H4544.63L4502.42 2900.25L4481.32 2889.7H4396.91L4354.7 2921.36L4333.6 2974.12L4270.29 2953.01L4185.88 2910.81L4249.19 2826.39L4354.7 2678.66L4428.56 2562.58L4439.11 2552.03Z" fill="white"/>
<path d="M4112.02 3132.4H4238.64L4291.39 3153.51L4323.05 3417.31L4291.39 3533.38L4217.53 3628.35L4143.67 3681.11L4090.91 3543.94L4038.16 3459.52L3985.4 3417.31L3964.3 3354L3953.74 3343.45L3943.19 3396.21H3837.68L3806.02 3385.65L3816.57 3332.89L3890.43 3185.16L3943.19 3195.71L3995.95 3248.48L4069.81 3185.16L3974.85 3174.61V3153.51L4112.02 3132.4Z" fill="white"/>
<path d="M4671.25 3691.67L4713.46 3712.77L4755.66 3786.64L4586.84 3871.05L4449.67 3976.57L4312.5 4113.75L4228.08 4219.27L4164.77 4293.14L4080.36 4282.59L4059.26 4272.03L4080.36 4219.27L4154.22 4124.3L4259.74 3987.13L4481.32 3765.53L4597.39 3702.22L4671.25 3691.67Z" fill="white"/>
<path d="M4660.7 2119.39H4692.35L4671.25 2161.6L4597.39 2235.47L4502.42 2362.09L4333.6 2625.9L4206.98 2815.84L4112.02 2910.81L4027.6 2942.46H3995.95L4017.05 2868.6L4112.02 2805.28L4217.53 2636.45L4301.94 2467.62L4375.81 2330.44L4449.67 2235.47L4565.73 2161.6L4660.7 2119.39Z" fill="white"/>
<path d="M2845.83 4767.99H3004.1L3077.96 4799.64L3067.41 4831.3L2919.69 4936.82L2835.28 4979.03L2961.9 5021.24L3025.21 5052.9V5074H2814.17L2719.21 5042.34L2677 5010.69V4989.58L2877.48 4884.06L2771.97 4905.17L2634.8 4968.48L2539.83 5052.9L2497.63 5074H2434.32V5031.79L2592.59 4957.93L2655.9 4873.51L2750.87 4799.64L2845.83 4767.99Z" fill="white"/>
<path d="M1695.71 2319.88L1716.81 2330.44L1769.57 2435.96L1811.78 2488.72H1832.88L1864.54 2351.54L1906.74 2372.64L2001.71 2457.06L1980.6 2562.58V2647L2022.81 2710.31V2826.39L1948.95 2763.07L1843.43 2657.55L1727.37 2562.58L1653.51 2499.27L1664.06 2435.96L1695.71 2319.88Z" fill="white"/>
<path d="M4755.66 3427.86H4977.24L5030 3543.94V3575.59L4681.8 3607.25H4555.18L4523.53 3480.62V3438.41L4755.66 3427.86Z" fill="white"/>
<path d="M1368.61 3195.71H1484.68L1600.75 3227.37L1685.16 3280.13L1716.81 3332.89V3364.55H1220.89L1157.58 3354L1178.69 3301.24L1231.44 3248.47L1284.2 3216.82L1368.61 3195.71Z" fill="white"/>
<path d="M1579.64 2530.93L1632.4 2541.48L1737.92 2625.9L1906.74 2784.18L2012.26 2889.7L2022.81 2931.91L1853.98 2847.49L1558.54 2689.21L1431.92 2625.9L1463.58 2594.24L1579.64 2530.93Z" fill="white"/>
<path d="M4618.49 3227.37H4892.83L4945.59 3343.44V3375.1L4660.7 3385.65H4502.42L4481.32 3290.68V3237.92L4618.49 3227.37Z" fill="white"/>
<path d="M3932.64 4504.18L3974.85 4525.29L4122.57 4715.23L4217.53 4831.3L4196.43 4873.51L4133.12 4926.27L4090.91 4915.72L3900.99 4683.57L3848.23 4609.71L3858.78 4556.94L3932.64 4504.18Z" fill="white"/>
<path d="M4745.11 3860.5H4829.52L4903.38 3902.71V3923.81L4766.21 3976.57L4576.28 4082.1L4375.81 4208.72L4291.39 4261.48L4270.29 4250.93L4354.7 4145.41L4534.08 3966.02L4681.8 3871.05L4745.11 3860.5Z" fill="white"/>
<path d="M2212.74 4071.55H2392.11L2529.28 4092.65L2603.14 4124.31V4155.96L2465.97 4198.17H2149.43L2033.36 4166.51L2001.71 4145.41V4124.31L2065.02 4092.65L2212.74 4071.55Z" fill="white"/>
<path d="M2930.24 3269.58L2972.45 3290.68L3056.86 3448.97L3172.93 3575.59L3278.44 3670.56L3257.34 3712.77L3204.58 3702.22L3077.96 3586.15L3025.21 3533.38L2845.83 3522.83L2719.21 3459.52L2677.01 3406.76L2750.87 3385.65L2856.38 3396.21L2972.45 3459.52L3004.1 3470.07L2930.24 3322.34V3269.58Z" fill="white"/>
<path d="M3890.43 3448.97H3953.74L4006.5 3491.17L4122.57 3712.77L4112.02 3744.43L4080.36 3765.53L4038.16 3754.98L4027.6 3744.43L4017.05 3807.74H3985.4L3964.29 3744.43L3953.74 3860.5L3900.99 3818.29L3890.43 3786.64V3702.22L3900.99 3660.01V3565.04L4017.05 3575.59L3974.85 3543.94L3900.99 3522.83L3879.88 3480.62L3890.43 3448.97Z" fill="white"/>
<path d="M4112.02 2953.01L4185.88 2963.57L4301.94 3016.33L4280.84 3037.43L4080.36 3090.19L3985.4 3100.74H3721.61L3784.92 3026.88L3827.12 2995.22L3995.95 2984.67L4080.36 2963.57L4112.02 2953.01Z" fill="white"/>
<path d="M2223.29 3997.68H2360.46L2529.28 4018.78L2634.8 4071.54V4103.2L2592.59 4124.3L2487.08 4092.65L2392.11 4082.1H2212.74L2065.02 4103.2L1970.05 4134.86L1959.5 4092.65L2001.71 4050.44L2075.57 4018.78L2223.29 3997.68Z" fill="white"/>
<path d="M4544.63 3026.88H4808.42L4861.18 3142.95V3164.06L4787.32 3174.61H4565.73L4544.63 3069.09V3026.88Z" fill="white"/>
<path d="M3331.2 3206.27H3436.72L3394.51 3290.68L3299.55 3375.1L3141.27 3459.52L3109.62 3470.07V3396.21L3151.83 3311.79L3225.69 3237.92L3331.2 3206.27Z" fill="white"/>
<path d="M2961.9 3966.02H3046.31L3056.86 3976.57V4367H2961.9V3966.02Z" fill="white"/>
<path d="M4396.91 2509.82L4418.01 2520.38V2541.48L4439.11 2562.58L4291.39 2784.18L4206.98 2889.7L4196.43 2910.81L4312.49 2963.57L4280.84 3005.78L4185.88 2974.12L4112.02 2963.57L4059.26 2984.67H4027.6V2942.46L4069.81 2921.36L4133.12 2879.15L4206.98 2805.28L4323.05 2625.9L4396.91 2509.82Z" fill="white"/>
<path d="M2814.18 2699.76L2856.38 2710.31L2866.93 2752.52L2856.38 2763.07L2845.83 2836.94L2898.59 2815.84H2930.24V2794.73H2983L2993.55 2836.94L2898.59 2868.6L2877.49 2889.7L2919.69 2931.91L2940.79 2942.46V2995.22L2888.04 2984.67L2845.83 2921.36L2824.73 2910.8L2793.07 2953.01L2771.97 3005.77L2729.76 2995.22L2719.21 2953.01L2782.52 2900.25L2793.07 2868.6L2687.56 2858.04L2677.01 2805.28L2729.76 2794.73L2782.52 2826.39L2814.18 2836.94L2803.62 2710.31L2814.18 2699.76Z" fill="white"/>
<path d="M1199.79 4124.31L1273.65 4134.86H1642.95L1632.4 4187.62L1569.09 4208.72L1495.23 4219.28H1347.51L1231.44 4198.17L1199.79 4166.51V4124.31Z" fill="white"/>
<path d="M4354.7 3237.92H4428.56L4491.87 3575.59V3617.8L4418.01 3607.25L4396.91 3554.49L4354.7 3269.58V3237.92Z" fill="white"/>
<path d="M4396.91 2942.46H4470.77L4502.42 3100.75V3174.61H4344.15L4354.7 3079.64L4396.91 2942.46Z" fill="white"/>
<path d="M3953.74 4324.8L3985.4 4335.35L3995.95 4388.11L3900.98 4461.97L3711.06 4588.6H3668.85L3647.75 4535.84L3890.43 4367L3953.74 4324.8Z" fill="white"/>
<path d="M4660.7 3818.29L4681.8 3828.84L4671.25 3849.95H4808.42V3860.5L4681.8 3881.61L4565.73 3955.47L4460.22 4050.44L4375.81 4134.86L4333.6 4124.31L4291.39 4166.51L4270.29 4155.96L4386.36 4029.34L4470.77 3944.92L4586.84 3860.5L4660.7 3818.29Z" fill="white"/>
<path d="M2750.87 3385.65L2856.38 3396.21L2972.45 3459.52L3035.76 3501.73V3522.83L2845.83 3522.83L2719.21 3459.52L2677.01 3406.76L2750.87 3385.65Z" fill="white"/>
<path d="M4080.36 2393.75H4101.47L4090.91 2457.06L4017.05 2625.9L3943.19 2741.97L3932.64 2763.08H3911.54L3922.09 2668.11L3964.29 2530.93V2457.06L4059.26 2404.3L4080.36 2393.75Z" fill="white"/>
<path d="M1611.3 1897.8L1664.06 1908.35V1982.22L1590.2 1971.66V1992.77L1642.95 2003.32L1664.06 2024.42V2161.6L1621.85 2151.05L1569.09 2098.29L1547.99 2045.53V1961.11L1590.2 1908.35L1611.3 1897.8Z" fill="white"/>
<path d="M2888.04 4440.87H3035.76L3151.82 4451.42V4525.29H2877.48V4451.42L2888.04 4440.87Z" fill="white"/>
<path d="M4354.7 3670.56L4428.56 3691.67L4460.22 3712.77L4418.01 3765.53L4333.6 3839.4L4238.64 3944.92H4217.53L4228.08 3892.16L4312.5 3723.32L4354.7 3670.56Z" fill="white"/>
<path d="M2022.81 2615.35L2065.02 2636.45L2138.88 2720.87L2159.98 2794.73V2921.36L2138.88 2953.02L2075.57 2910.81L2054.47 2689.21L2022.81 2615.35Z" fill="white"/>
<path d="M2149.43 4546.39H2455.42L2444.87 4599.15L2423.77 4620.26L2381.56 4630.81H2223.29L2159.98 4599.15L2149.43 4546.39Z" fill="white"/>
<path d="M4185.88 2562.58L4206.98 2573.14L4122.57 2720.87L4059.26 2794.73L4048.71 2773.63H3974.85L4027.6 2668.11L4122.57 2594.24L4185.88 2562.58Z" fill="white"/>
<path d="M2022.81 1855.59H2117.77L2159.98 1887.24L2149.43 1929.45L2128.32 2003.32L2107.22 2024.42L2054.46 2013.87L2043.91 1982.21V1897.8L2012.26 1908.35L1980.6 1971.66L1948.95 1961.11L1959.5 1908.35L2022.81 1855.59Z" fill="white"/>
<path d="M3468.37 3818.29L3521.13 3828.84L3552.78 3892.16L3542.23 3934.37L3436.72 3997.68L3383.96 3923.81L3394.51 3881.61L3468.37 3818.29Z" fill="white"/>
<path d="M4185.88 2826.39L4206.98 2836.94L4196.43 2847.49L4217.53 2858.05L4196.43 2910.81L4312.49 2963.57L4280.84 3005.78L4185.88 2974.12L4112.02 2963.57L4059.26 2984.67H4027.6V2942.46L4069.81 2921.36L4133.12 2879.15L4185.88 2826.39Z" fill="white"/>
<path d="M3879.88 2815.84H3985.4L3953.74 2921.36L3943.19 2942.46H3827.12L3858.78 2847.49L3879.88 2815.84Z" fill="white"/>
<path d="M3721.61 4155.96L3774.37 4208.72V4240.38L3679.4 4303.69L3637.2 4293.14L3605.54 4240.38L3721.61 4155.96Z" fill="white"/>
<path d="M3637.2 4060.99L3679.4 4071.54L3700.51 4103.2V4134.86L3605.54 4198.17H3563.34L3531.68 4155.96L3542.23 4124.31L3637.2 4060.99Z" fill="white"/>
<path d="M3795.47 4261.48H3816.57L3848.23 4314.24L3827.12 4356.45L3742.71 4409.21L3700.51 4388.11L3679.4 4345.9L3795.47 4261.48Z" fill="white"/>
<path d="M3573.89 3955.47L3605.54 3966.02L3626.65 3997.68L3616.09 4039.89L3510.58 4103.2L3468.37 4050.44L3489.48 4008.23L3573.89 3955.47Z" fill="white"/>
<path d="M4396.91 3765.53L4449.67 3807.74L4301.94 3955.47L4259.74 3913.26L4354.7 3807.74L4396.91 3765.53Z" fill="white"/>
<path d="M2930.24 3269.58L2972.45 3290.68L3056.86 3448.97L3077.96 3480.62L3025.21 3501.73L2961.9 3385.65L2930.24 3322.34V3269.58Z" fill="white"/>
<path d="M3890.43 3448.97H3953.74L4006.5 3491.17L4048.71 3575.59L4006.5 3565.04L3974.85 3543.94L3900.99 3522.83L3879.88 3480.62L3890.43 3448.97Z" fill="white"/>
<path d="M4122.57 3892.16H4143.67L4164.77 4029.34L4122.57 4092.65L4090.91 4082.1V3997.68L4122.57 3892.16Z" fill="white"/>
<path d="M2592.59 4957.93L2613.7 4989.58L2539.83 5052.9L2497.63 5074H2434.32V5031.79L2592.59 4957.93Z" fill="white"/>
<path d="M2465.97 4483.08H2487.08L2465.97 4578.05L2455.42 4546.39L2423.77 4556.94H2286.6L2297.15 4535.84H2318.25V4514.73L2465.97 4483.08Z" fill="white"/>
<path d="M4333.6 4113.75H4365.25L4354.7 4155.96L4280.84 4250.93L4206.98 4240.38L4259.74 4166.51L4312.5 4134.86L4333.6 4113.75Z" fill="white"/>
<path d="M2687.56 4841.85L2698.11 4873.51L2729.76 4894.61L2719.21 4926.27L2634.8 4968.48L2603.14 4979.03L2613.7 4926.27L2687.56 4841.85Z" fill="white"/>
<path d="M4418.01 4082.1V4113.75L4396.91 4155.96L4418.01 4177.07L4312.5 4250.93L4270.29 4261.48L4333.6 4166.51L4418.01 4082.1Z" fill="white"/>
<path d="M4660.7 3818.29L4681.8 3828.84L4671.25 3849.95H4808.42V3860.5L4681.8 3881.61L4607.94 3923.81L4597.39 3892.16L4639.59 3828.84L4660.7 3818.29Z" fill="white"/>
<path d="M4396.91 2509.82L4418.01 2520.38V2541.48L4439.11 2562.58L4386.36 2647L4365.25 2625.9L4323.05 2647L4344.15 2594.24L4396.91 2509.82Z" fill="white"/>
<path d="M4027.6 2636.45L4059.26 2657.55L4017.05 2699.76L3974.85 2773.63L3932.64 2763.08L3953.74 2699.76L3995.95 2657.55H4027.6V2636.45Z" fill="white"/>
<path d="M3932.64 2615.35H3953.74V2636.45L3995.95 2647L3932.64 2763.08H3911.54L3922.09 2668.11L3932.64 2615.35Z" fill="white"/>
<path d="M4185.88 2826.39L4206.98 2836.94L4112.02 2931.91V2963.57L4059.26 2984.67H4027.6V2942.46L4069.81 2921.36L4133.12 2879.15L4185.88 2826.39Z" fill="white"/>
<path d="M2687.56 2794.73L2740.32 2805.28L2782.52 2826.39V2868.6L2687.56 2858.04L2677.01 2805.28L2687.56 2794.73Z" fill="white"/>
<path d="M4238.64 2752.52L4280.84 2763.07L4270.29 2815.84L4217.53 2868.6L4185.88 2847.49L4238.64 2752.52Z" fill="white"/>
<path d="M2392.11 1693.79L2413.22 1704.34L2423.77 1778.2L2371.01 1799.31L2349.91 1813.38L2339.36 1792.28L2318.25 1781.72L2392.11 1693.79Z" fill="white"/>
<path d="M2297.15 2013.87L2371.01 2077.19L2360.46 2129.95L2328.81 2161.6L2297.15 2151.05L2318.25 2119.39L2297.15 2013.87Z" fill="white"/>
<path d="M3753.26 4240.38L3774.37 4250.93L3753.26 4303.69L3679.4 4345.9L3647.75 4303.69L3742.71 4250.93L3753.26 4240.38Z" fill="white"/>
<path d="M2022.81 2615.35L2065.02 2636.45L2128.33 2710.32L2086.12 2731.42L2075.57 2794.73H2065.02L2043.91 2657.55L2022.81 2615.35Z" fill="white"/>
<path d="M1611.3 1897.8L1664.06 1908.35V1982.22L1600.75 1971.66L1611.3 1929.45L1558.54 1950.56L1611.3 1897.8Z" fill="white"/>
<path d="M3616.09 4029.34L3626.65 4050.44L3668.85 4060.99L3573.89 4113.75H3531.68V4082.1L3616.09 4029.34Z" fill="white"/>
<path d="M4090.91 3586.14H4122.57L4154.22 3691.67H4101.47L4069.81 3628.35V3607.25H4090.91V3586.14Z" fill="white"/>
<path d="M3974.85 2836.94L4027.6 2858.05L4006.5 2953.02H3985.4L3974.85 2931.91L3943.19 2942.46L3974.85 2836.94Z" fill="white"/>
<path d="M2149.43 2235.47L2297.15 2246.02V2267.12L2276.05 2277.68H2170.53L2149.43 2235.47Z" fill="white"/>
<path d="M2814.18 2699.76L2856.38 2710.31L2866.93 2752.52L2835.28 2784.18L2824.73 2836.94H2814.18L2803.62 2710.31L2814.18 2699.76Z" fill="white"/>
<path d="M4017.05 3174.61H4090.91L3985.4 3259.03L3964.29 3216.82L4006.5 3206.27L4017.05 3174.61Z" fill="white"/>
<path d="M4080.36 2763.07L4090.91 2784.18L4122.57 2805.28L4059.26 2847.49L4038.15 2815.84V2784.18H3974.85V2773.63H4069.81L4080.36 2763.07Z" fill="white"/>
<path d="M2771.97 2931.91H2782.52V2995.22L2740.31 3005.78L2719.21 2984.67L2729.76 2942.46L2771.97 2931.91Z" fill="white"/>
<path d="M3236.24 3649.46L3278.44 3670.56L3257.34 3712.77L3204.58 3702.22L3194.03 3670.56L3236.24 3649.46Z" fill="white"/>
<path d="M2930.24 2794.73H2983L2993.55 2836.94L2983 2847.49H2919.69L2930.24 2794.73Z" fill="white"/>
<path d="M4027.6 4092.65L4048.71 4103.2V4177.07L4006.5 4208.72L4017.05 4113.75L4027.6 4092.65Z" fill="white"/>
<path d="M2845.83 4873.51L2888.04 4884.06L2782.52 4936.82L2771.97 4894.61L2845.83 4873.51Z" fill="white"/>
<path d="M4017.05 3142.95L4101.46 3153.5L4090.91 3174.61H3974.85V3153.5L4017.05 3142.95Z" fill="white"/>
<path d="M4196.43 2615.35L4228.08 2636.45L4206.98 2668.11L4164.77 2678.66L4143.67 2710.32L4122.57 2699.76L4164.77 2636.45L4196.43 2615.35Z" fill="white"/>
<path d="M3647.75 4155.96L3668.85 4166.51L3647.75 4219.27L3605.54 4240.38L3573.89 4198.17L3637.2 4166.51L3647.75 4155.96Z" fill="white"/>
<path d="M1522 3068C1522 3114.94 1485.06 3153 1439.5 3153C1393.94 3153 1357 3114.94 1357 3068C1357 3021.06 1393.94 2983 1439.5 2983C1485.06 2983 1522 3021.06 1522 3068Z" fill="white"/>
<circle cx="2983" cy="2983" r="2343.5" stroke="white" stroke-width="151"/>
<defs>
<radialGradient id="paint0_radial_86_1242" cx="0" cy="0" r="1" gradientUnits="userSpaceOnUse" gradientTransform="translate(2983 2983) rotate(90) scale(2983)">
<stop offset="0.360932" stop-color="#FF5E00"/>
<stop offset="0.96843" stop-color="#FFD47E"/>
</radialGradient>
</defs>
</svg>
