<svg width="1847" height="1847" viewBox="0 0 1847 1847" fill="none" xmlns="http://www.w3.org/2000/svg">
<g filter="url(#filter0_d_8_796)">
<path d="M4 286.226C4 128.148 132.148 0 290.226 0H1556.77C1714.85 0 1843 128.148 1843 286.226V1552.77C1843 1710.85 1714.85 1839 1556.77 1839H290.226C132.148 1839 4 1710.85 4 1552.77V286.226Z" fill="url(#paint0_radial_8_796)"/>
<path d="M257.31 1485.18V1203.58H427.47V1233.83H291.452V1328.98H418.659V1359.23H291.452V1454.93H429.672V1485.18H257.31Z" fill="white"/>
<path d="M607.937 1407.35L578.751 1415.6C576.915 1410.74 574.207 1406.02 570.628 1401.44C567.14 1396.76 562.368 1392.91 556.311 1389.89C550.253 1386.86 542.498 1385.35 533.044 1385.35C520.103 1385.35 509.319 1388.33 500.692 1394.29C492.156 1400.16 487.889 1407.63 487.889 1416.7C487.889 1424.77 490.826 1431.14 496.699 1435.81C502.573 1440.49 511.751 1444.39 524.233 1447.5L555.622 1455.2C574.529 1459.78 588.617 1466.8 597.887 1476.24C607.156 1485.59 611.791 1497.64 611.791 1512.4C611.791 1524.5 608.304 1535.32 601.328 1544.85C594.445 1554.38 584.808 1561.9 572.418 1567.4C560.028 1572.9 545.618 1575.65 529.19 1575.65C507.621 1575.65 489.77 1570.98 475.636 1561.63C461.502 1552.28 452.553 1538.62 448.79 1520.65L479.628 1512.95C482.565 1524.32 488.118 1532.84 496.286 1538.53C504.547 1544.21 515.331 1547.05 528.639 1547.05C543.783 1547.05 555.806 1543.84 564.708 1537.43C573.703 1530.92 578.2 1523.13 578.2 1514.05C578.2 1506.72 575.63 1500.58 570.49 1495.63C565.351 1490.58 557.458 1486.83 546.811 1484.35L511.568 1476.1C492.202 1471.52 477.976 1464.41 468.89 1454.79C459.896 1445.07 455.398 1432.93 455.398 1418.35C455.398 1406.44 458.748 1395.89 465.448 1386.73C472.24 1377.56 481.464 1370.36 493.12 1365.14C504.868 1359.92 518.176 1357.3 533.044 1357.3C553.97 1357.3 570.399 1361.89 582.33 1371.05C594.353 1380.22 602.889 1392.32 607.937 1407.35Z" fill="white"/>
<path d="M799.175 1446.95L769.989 1455.2C768.153 1450.34 765.446 1445.62 761.867 1441.04C758.379 1436.36 753.606 1432.51 747.549 1429.49C741.491 1426.46 733.736 1424.95 724.283 1424.95C711.342 1424.95 700.558 1427.93 691.93 1433.89C683.395 1439.76 679.127 1447.23 679.127 1456.3C679.127 1464.37 682.064 1470.74 687.938 1475.41C693.812 1480.09 702.99 1483.98 715.472 1487.1L746.861 1494.8C765.767 1499.38 779.855 1506.4 789.125 1515.84C798.395 1525.19 803.03 1537.24 803.03 1552C803.03 1564.1 799.542 1574.92 792.567 1584.45C785.684 1593.98 776.047 1601.5 763.656 1607C751.266 1612.5 736.857 1615.25 720.428 1615.25C698.86 1615.25 681.009 1610.58 666.874 1601.23C652.74 1591.88 643.792 1578.22 640.029 1560.25L670.867 1552.55C673.804 1563.92 679.356 1572.44 687.525 1578.13C695.785 1583.81 706.569 1586.65 719.877 1586.65C735.021 1586.65 747.044 1583.44 755.947 1577.03C764.941 1570.52 769.438 1562.73 769.438 1553.65C769.438 1546.32 766.869 1540.18 761.729 1535.23C756.589 1530.18 748.696 1526.43 738.05 1523.95L702.806 1515.7C683.441 1511.12 669.215 1504.01 660.129 1494.39C651.134 1484.67 646.637 1472.53 646.637 1457.95C646.637 1446.04 649.987 1435.49 656.687 1426.33C663.479 1417.16 672.702 1409.96 684.358 1404.74C696.106 1399.51 709.414 1396.9 724.283 1396.9C745.209 1396.9 761.637 1401.49 773.568 1410.65C785.592 1419.82 794.127 1431.92 799.175 1446.95Z" fill="white"/>
<path d="M912.65 1457.13C892.274 1457.13 874.699 1452.63 859.922 1443.65C845.237 1434.58 833.902 1421.93 825.918 1405.7C818.025 1389.39 814.078 1370.41 814.078 1348.78C814.078 1327.14 818.025 1308.08 825.918 1291.58C833.902 1274.99 845.008 1262.06 859.234 1252.8C873.551 1243.45 890.255 1238.78 909.345 1238.78C920.359 1238.78 931.235 1240.61 941.973 1244.28C952.711 1247.95 962.486 1253.9 971.297 1262.15C980.108 1270.31 987.129 1281.13 992.36 1294.6C997.592 1308.08 1000.21 1324.67 1000.21 1344.38V1358.13H837.206V1330.08H967.167C967.167 1318.16 964.78 1307.53 960.008 1298.18C955.327 1288.83 948.627 1281.45 939.908 1276.04C931.281 1270.63 921.093 1267.93 909.345 1267.93C896.404 1267.93 885.207 1271.14 875.754 1277.55C866.392 1283.88 859.188 1292.13 854.14 1302.3C849.092 1312.48 846.568 1323.39 846.568 1335.03V1353.73C846.568 1369.68 849.321 1383.2 854.828 1394.29C860.427 1405.29 868.182 1413.68 878.094 1419.45C888.007 1425.14 899.525 1427.98 912.65 1427.98C921.185 1427.98 928.895 1426.79 935.778 1424.4C942.753 1421.93 948.765 1418.26 953.813 1413.4C958.861 1408.45 962.761 1402.31 965.515 1394.98L996.904 1403.78C993.599 1414.41 988.047 1423.76 980.245 1431.83C972.444 1439.8 962.807 1446.04 951.335 1450.53C939.862 1454.93 926.967 1457.13 912.65 1457.13Z" fill="white"/>
<path d="M1065.41 1490.13V1617.18H1032.92V1405.98H1064.31V1438.98H1067.06C1072.02 1428.25 1079.54 1419.64 1089.64 1413.13C1099.74 1406.53 1112.77 1403.23 1128.74 1403.23C1143.06 1403.23 1155.58 1406.16 1166.32 1412.03C1177.06 1417.8 1185.41 1426.6 1191.38 1438.43C1197.34 1450.16 1200.33 1465.01 1200.33 1482.98V1617.18H1167.84V1485.18C1167.84 1468.58 1163.52 1455.66 1154.9 1446.4C1146.27 1437.05 1134.43 1432.38 1119.38 1432.38C1109.01 1432.38 1099.74 1434.62 1091.57 1439.11C1083.49 1443.61 1077.11 1450.16 1072.43 1458.78C1067.75 1467.39 1065.41 1477.84 1065.41 1490.13Z" fill="white"/>
<path d="M1310 1535.23C1290.17 1535.23 1273.1 1530.55 1258.79 1521.2C1244.47 1511.85 1233.45 1498.97 1225.75 1482.56C1218.04 1466.16 1214.18 1447.41 1214.18 1426.33C1214.18 1404.88 1218.13 1385.95 1226.02 1369.54C1234.01 1353.04 1245.11 1340.16 1259.34 1330.9C1273.65 1321.55 1290.36 1316.88 1309.45 1316.88C1324.32 1316.88 1337.72 1319.63 1349.65 1325.13C1361.58 1330.63 1371.35 1338.33 1378.97 1348.23C1386.59 1358.13 1391.32 1369.68 1393.15 1382.88H1360.66C1358.18 1373.25 1352.68 1364.73 1344.14 1357.3C1335.7 1349.79 1324.32 1346.03 1310 1346.03C1297.33 1346.03 1286.23 1349.33 1276.68 1355.93C1267.23 1362.44 1259.84 1371.65 1254.52 1383.56C1249.29 1395.39 1246.67 1409.28 1246.67 1425.23C1246.67 1441.54 1249.24 1455.75 1254.38 1467.85C1259.61 1479.95 1266.95 1489.35 1276.41 1496.04C1285.95 1502.73 1297.15 1506.08 1310 1506.08C1318.44 1506.08 1326.11 1504.61 1332.99 1501.68C1339.87 1498.74 1345.7 1494.53 1350.47 1489.03C1355.25 1483.53 1358.64 1476.93 1360.66 1469.23H1393.15C1391.32 1481.69 1386.77 1492.92 1379.52 1502.91C1372.36 1512.81 1362.86 1520.7 1351.02 1526.56C1339.28 1532.34 1325.6 1535.23 1310 1535.23Z" fill="white"/>
<path d="M1503.56 1601.23C1483.19 1601.23 1465.61 1596.73 1450.84 1587.75C1436.15 1578.68 1424.82 1566.03 1416.83 1549.8C1408.94 1533.48 1404.99 1514.51 1404.99 1492.88C1404.99 1471.24 1408.94 1452.18 1416.83 1435.68C1424.82 1419.09 1435.92 1406.16 1450.15 1396.9C1464.46 1387.55 1481.17 1382.88 1500.26 1382.88C1511.27 1382.88 1522.15 1384.71 1532.89 1388.38C1543.62 1392.04 1553.4 1398 1562.21 1406.25C1571.02 1414.41 1578.04 1425.23 1583.27 1438.7C1588.51 1452.18 1591.12 1468.77 1591.12 1488.48V1502.23H1428.12V1474.18H1558.08C1558.08 1462.26 1555.69 1451.63 1550.92 1442.28C1546.24 1432.93 1539.54 1425.55 1530.82 1420.14C1522.19 1414.73 1512.01 1412.03 1500.26 1412.03C1487.32 1412.03 1476.12 1415.24 1466.67 1421.65C1457.31 1427.98 1450.1 1436.23 1445.05 1446.4C1440.01 1456.58 1437.48 1467.48 1437.48 1479.13V1497.83C1437.48 1513.78 1440.23 1527.3 1445.74 1538.39C1451.34 1549.39 1459.1 1557.78 1469.01 1563.55C1478.92 1569.23 1490.44 1572.08 1503.56 1572.08C1512.1 1572.08 1519.81 1570.88 1526.69 1568.5C1533.67 1566.03 1539.68 1562.36 1544.73 1557.5C1549.77 1552.55 1553.67 1546.41 1556.43 1539.08L1587.82 1547.88C1584.51 1558.51 1578.96 1567.86 1571.16 1575.93C1563.36 1583.9 1553.72 1590.13 1542.25 1594.63C1530.78 1599.03 1517.88 1601.23 1503.56 1601.23Z" fill="white"/>
</g>
<defs>
<filter id="filter0_d_8_796" x="0" y="0" width="1847" height="1847" filterUnits="userSpaceOnUse" color-interpolation-filters="sRGB">
<feFlood flood-opacity="0" result="BackgroundImageFix"/>
<feColorMatrix in="SourceAlpha" type="matrix" values="0 0 0 0 0 0 0 0 0 0 0 0 0 0 0 0 0 0 127 0" result="hardAlpha"/>
<feOffset dy="4"/>
<feGaussianBlur stdDeviation="2"/>
<feComposite in2="hardAlpha" operator="out"/>
<feColorMatrix type="matrix" values="0 0 0 0 0 0 0 0 0 0 0 0 0 0 0 0 0 0 0.25 0"/>
<feBlend mode="normal" in2="BackgroundImageFix" result="effect1_dropShadow_8_796"/>
<feBlend mode="normal" in="SourceGraphic" in2="effect1_dropShadow_8_796" result="shape"/>
</filter>
<radialGradient id="paint0_radial_8_796" cx="0" cy="0" r="1" gradientUnits="userSpaceOnUse" gradientTransform="translate(923.5 919.5) rotate(90) scale(919.5)">
<stop offset="0.360932" stop-color="#FF5E00"/>
<stop offset="0.96843" stop-color="#FFD47E"/>
</radialGradient>
</defs>
</svg>
