<svg width="6047" height="1791" viewBox="0 0 6047 1791" fill="none" xmlns="http://www.w3.org/2000/svg">
<g clip-path="url(#clip0_68_666)">
<rect width="6047" height="1791" fill="url(#paint0_linear_68_666)"/>
<path d="M2130.3 1607.23L1856.6 1767.82L2130.3 1928.4L2404 1767.82L2130.3 1607.23Z" fill="url(#paint1_radial_68_666)"/>
<path d="M1582.9 1928.4L1309.2 2088.98L1582.9 2249.56L1856.6 2088.98L1582.9 1928.4Z" fill="url(#paint2_radial_68_666)"/>
<path d="M1035.5 2249.56L761.8 2410.15L1035.5 2570.73L1309.2 2410.15L1035.5 2249.56Z" fill="url(#paint3_radial_68_666)"/>
<path d="M1582.9 1286.07L1309.2 1446.65L1582.9 1607.23L1856.6 1446.65L1582.9 1286.07Z" fill="url(#paint4_radial_68_666)"/>
<path d="M1035.5 1607.23L761.8 1767.82L1035.5 1928.4L1309.2 1767.82L1035.5 1607.23Z" fill="url(#paint5_radial_68_666)"/>
<path d="M488.1 1928.4L214.4 2088.98L488.1 2249.56L761.8 2088.98L488.1 1928.4Z" fill="url(#paint6_radial_68_666)"/>
<path d="M1035.5 964.905L761.8 1125.49L1035.5 1286.07L1309.2 1125.49L1035.5 964.905Z" fill="url(#paint7_radial_68_666)"/>
<path d="M488.1 1286.07L214.4 1446.65L488.1 1607.23L761.8 1446.65L488.1 1286.07Z" fill="url(#paint8_radial_68_666)"/>
<path d="M-59.3 1607.23L-333 1767.82L-59.3 1928.4L214.4 1767.82L-59.3 1607.23Z" fill="url(#paint9_radial_68_666)"/>
<path d="M488.1 1607.23L214.4 1767.82L488.1 1928.4L761.8 1767.82L488.1 1607.23Z" fill="url(#paint10_radial_68_666)"/>
<path d="M1035.5 1928.4L761.8 2088.98L1035.5 2249.56L1309.2 2088.98L1035.5 1928.4Z" fill="url(#paint11_radial_68_666)"/>
<path d="M1035.5 1286.07L761.8 1446.65L1035.5 1607.23L1309.2 1446.65L1035.5 1286.07Z" fill="url(#paint12_radial_68_666)"/>
<path d="M1582.9 1607.23L1309.2 1767.82L1582.9 1928.4L1856.6 1767.82L1582.9 1607.23Z" fill="url(#paint13_radial_68_666)"/>
<path d="M2404 1445.57L2130.3 1284.99V1606.16L2404 1766.74V1445.57Z" fill="url(#paint14_radial_68_666)"/>
<path d="M1856.6 1124.41L1582.9 963.825V1284.99L1856.6 1445.57V1124.41Z" fill="url(#paint15_radial_68_666)"/>
<path d="M1309.2 803.243L1035.5 642.66V963.825L1309.2 1124.41V803.243Z" fill="url(#paint16_radial_68_666)"/>
<path d="M2404 803.242L2130.3 642.66V963.825L2404 1124.41V803.242Z" fill="url(#paint17_radial_68_666)"/>
<path d="M1856.6 482.077L1582.9 321.495V642.66L1856.6 803.243V482.077Z" fill="url(#paint18_radial_68_666)"/>
<path d="M1309.2 160.912L1035.5 0.329956V321.495L1309.2 482.077V160.912Z" fill="url(#paint19_radial_68_666)"/>
<path d="M2404 160.912L2130.3 0.329972V321.495L2404 482.078V160.912Z" fill="url(#paint20_radial_68_666)"/>
<path d="M1856.6 -160.252L1582.9 -320.835V0.329994L1856.6 160.913V-160.252Z" fill="url(#paint21_radial_68_666)"/>
<path d="M1309.2 -481.418L1035.5 -642V-320.835L1309.2 -160.252V-481.418Z" fill="url(#paint22_radial_68_666)"/>
<path d="M1582.9 0.329994L1309.2 -160.252V160.912L1582.9 321.495V0.329994Z" fill="url(#paint23_radial_68_666)"/>
<path d="M1582.9 642.66L1309.2 482.077V803.243L1582.9 963.825V642.66Z" fill="url(#paint24_radial_68_666)"/>
<path d="M2130.3 321.495L1856.6 160.913V482.077L2130.3 642.66V321.495Z" fill="url(#paint25_radial_68_666)"/>
<path d="M2130.3 963.825L1856.6 803.243V1124.41L2130.3 1284.99V963.825Z" fill="url(#paint26_radial_68_666)"/>
<path d="M1035.5 642.661L761.8 803.244V1124.41L1035.5 963.826V642.661Z" fill="url(#paint27_radial_68_666)"/>
<path d="M488.1 963.826L214.4 1124.41V1445.57L488.1 1284.99V963.826Z" fill="url(#paint28_radial_68_666)"/>
<path d="M-59.3 1284.99L-333 1445.57V1766.74L-59.3 1606.16V1284.99Z" fill="url(#paint29_radial_68_666)"/>
<path d="M1035.5 0.331035L761.8 160.914V482.079L1035.5 321.496V0.331035Z" fill="url(#paint30_radial_68_666)"/>
<path d="M488.1 321.496L214.4 482.079V803.244L488.1 642.661V321.496Z" fill="url(#paint31_radial_68_666)"/>
<path d="M-59.3 642.661L-333 803.244V1124.41L-59.3 963.826V642.661Z" fill="url(#paint32_radial_68_666)"/>
<path d="M1035.5 -641.999L761.8 -481.416V-160.251L1035.5 -320.834V-641.999Z" fill="url(#paint33_radial_68_666)"/>
<path d="M488.1 -320.834L214.4 -160.251V160.914L488.1 0.331073V-320.834Z" fill="url(#paint34_radial_68_666)"/>
<path d="M-59.3 0.331081L-333 160.914V482.079L-59.3 321.496V0.331081Z" fill="url(#paint35_radial_68_666)"/>
<path d="M214.4 160.914L-59.3 321.496V642.661L214.4 482.079V160.914Z" fill="url(#paint36_radial_68_666)"/>
<path d="M214.4 803.244L-59.3 963.826V1284.99L214.4 1124.41V803.244Z" fill="url(#paint37_radial_68_666)"/>
<path d="M761.8 -160.251L488.1 0.331073V321.496L761.8 160.914V-160.251Z" fill="url(#paint38_radial_68_666)"/>
<path d="M761.8 482.079L488.1 642.661V963.826L761.8 803.244V482.079Z" fill="url(#paint39_radial_68_666)"/>
<path d="M1035.5 2248.88L761.8 2088.3V2409.47L1035.5 2570.05V2248.88Z" fill="url(#paint40_radial_68_666)"/>
<path d="M488.1 1927.72L214.4 1767.14V2088.3L488.1 2248.88V1927.72Z" fill="url(#paint41_radial_68_666)"/>
<path d="M-59.3 1606.55L-333 1445.97V1767.14L-59.3 1927.72V1606.55Z" fill="url(#paint42_radial_68_666)"/>
<path d="M1035.5 1606.55L761.8 1445.97V1767.14L1035.5 1927.72V1606.55Z" fill="url(#paint43_radial_68_666)"/>
<path d="M488.1 1285.39L214.4 1124.81V1445.97L488.1 1606.55V1285.39Z" fill="url(#paint44_radial_68_666)"/>
<path d="M-59.3 964.223L-333 803.641V1124.81L-59.3 1285.39V964.223Z" fill="url(#paint45_radial_68_666)"/>
<path d="M1035.5 964.224L761.8 803.641V1124.81L1035.5 1285.39V964.224Z" fill="url(#paint46_radial_68_666)"/>
<path d="M488.1 643.059L214.4 482.476V803.641L488.1 964.224V643.059Z" fill="url(#paint47_radial_68_666)"/>
<path d="M-59.3 321.894L-333 161.311V482.476L-59.3 643.059V321.894Z" fill="url(#paint48_radial_68_666)"/>
<path d="M214.4 803.641L-59.3 643.059V964.223L214.4 1124.81V803.641Z" fill="url(#paint49_radial_68_666)"/>
<path d="M214.4 1445.97L-59.3 1285.39V1606.55L214.4 1767.14V1445.97Z" fill="url(#paint50_radial_68_666)"/>
<path d="M761.8 1124.81L488.1 964.224V1285.39L761.8 1445.97V1124.81Z" fill="url(#paint51_radial_68_666)"/>
<path d="M761.8 1767.14L488.1 1606.55V1927.72L761.8 2088.3V1767.14Z" fill="url(#paint52_radial_68_666)"/>
<path d="M2404 1445.5L2130.3 1606.08V1927.24L2404 1766.66V1445.5Z" fill="url(#paint53_radial_68_666)"/>
<path d="M1856.6 1766.66L1582.9 1927.24V2248.41L1856.6 2087.83V1766.66Z" fill="url(#paint54_radial_68_666)"/>
<path d="M1309.2 2087.83L1035.5 2248.41V2569.57L1309.2 2408.99V2087.83Z" fill="url(#paint55_radial_68_666)"/>
<path d="M2404 803.166L2130.3 963.749V1284.91L2404 1124.33V803.166Z" fill="url(#paint56_radial_68_666)"/>
<path d="M1856.6 1124.33L1582.9 1284.91V1606.08L1856.6 1445.5V1124.33Z" fill="url(#paint57_radial_68_666)"/>
<path d="M1309.2 1445.5L1035.5 1606.08V1927.24L1309.2 1766.66V1445.5Z" fill="url(#paint58_radial_68_666)"/>
<path d="M2404 160.836L2130.3 321.419V642.584L2404 482.001V160.836Z" fill="url(#paint59_radial_68_666)"/>
<path d="M1856.6 482.001L1582.9 642.584V963.749L1856.6 803.166V482.001Z" fill="url(#paint60_radial_68_666)"/>
<path d="M1309.2 803.166L1035.5 963.749V1284.91L1309.2 1124.33V803.166Z" fill="url(#paint61_radial_68_666)"/>
<path d="M1582.9 963.749L1309.2 1124.33V1445.5L1582.9 1284.91V963.749Z" fill="url(#paint62_radial_68_666)"/>
<path d="M1582.9 1606.08L1309.2 1766.66V2087.83L1582.9 1927.24V1606.08Z" fill="url(#paint63_radial_68_666)"/>
<path d="M2130.3 642.584L1856.6 803.166V1124.33L2130.3 963.749V642.584Z" fill="url(#paint64_radial_68_666)"/>
<path d="M2130.3 1284.91L1856.6 1445.5V1766.66L2130.3 1606.08V1284.91Z" fill="url(#paint65_radial_68_666)"/>
<path d="M2130.3 0.330136L1856.6 160.913L2130.3 321.495L2404 160.913L2130.3 0.330136Z" fill="url(#paint66_radial_68_666)"/>
<path d="M1582.9 321.495L1309.2 482.078L1582.9 642.66L1856.6 482.078L1582.9 321.495Z" fill="url(#paint67_radial_68_666)"/>
<path d="M1035.5 642.66L761.8 803.243L1035.5 963.825L1309.2 803.243L1035.5 642.66Z" fill="url(#paint68_radial_68_666)"/>
<path d="M1582.9 -320.835L1309.2 -160.252L1582.9 0.330074L1856.6 -160.252L1582.9 -320.835Z" fill="url(#paint69_radial_68_666)"/>
<path d="M1035.5 0.330074L761.8 160.913L1035.5 321.495L1309.2 160.913L1035.5 0.330074Z" fill="url(#paint70_radial_68_666)"/>
<path d="M488.1 321.495L214.4 482.078L488.1 642.66L761.8 482.078L488.1 321.495Z" fill="url(#paint71_radial_68_666)"/>
<path d="M1035.5 -642L761.8 -481.417L1035.5 -320.835L1309.2 -481.417L1035.5 -642Z" fill="url(#paint72_radial_68_666)"/>
<path d="M488.1 -320.835L214.4 -160.252L488.1 0.33012L761.8 -160.252L488.1 -320.835Z" fill="url(#paint73_radial_68_666)"/>
<path d="M-59.3 0.330089L-333 160.913L-59.3 321.495L214.4 160.913L-59.3 0.330089Z" fill="url(#paint74_radial_68_666)"/>
<path d="M488.1 0.33012L214.4 160.913L488.1 321.495L761.8 160.913L488.1 0.33012Z" fill="url(#paint75_radial_68_666)"/>
<path d="M1035.5 321.495L761.8 482.078L1035.5 642.66L1309.2 482.078L1035.5 321.495Z" fill="url(#paint76_radial_68_666)"/>
<path d="M1035.5 -320.835L761.8 -160.252L1035.5 0.330074L1309.2 -160.252L1035.5 -320.835Z" fill="url(#paint77_radial_68_666)"/>
<path d="M1582.9 0.330074L1309.2 160.913L1582.9 321.495L1856.6 160.913L1582.9 0.330074Z" fill="url(#paint78_radial_68_666)"/>
<path d="M4426.55 1231.72L4432.41 1186.8H4434.75L4464.83 1067.66H4492.56V1116.88H4481.23L4451.16 1231.72H4426.55ZM4341 1345V1067.66H4380.06V1345H4341ZM4415.22 1231.72L4385.14 1116.88H4373.81V1067.66H4401.55L4431.62 1186.8H4433.19L4437.09 1231.72H4415.22ZM4486.31 1345V1067.66H4525.38V1345H4486.31ZM4631.56 1348.91C4602.92 1348.91 4580.65 1339.53 4564.77 1320.78C4548.88 1302.03 4540.94 1275.6 4540.94 1241.48C4540.94 1207.24 4548.88 1180.81 4564.77 1162.19C4580.65 1143.44 4602.92 1134.06 4631.56 1134.06C4660.34 1134.06 4682.6 1143.44 4698.36 1162.19C4714.24 1180.81 4722.19 1207.24 4722.19 1241.48C4722.19 1275.6 4714.24 1302.03 4698.36 1320.78C4682.6 1339.53 4660.34 1348.91 4631.56 1348.91ZM4631.56 1311.8C4646.8 1311.8 4658.52 1305.68 4666.72 1293.44C4675.05 1281.2 4679.22 1263.88 4679.22 1241.48C4679.22 1218.96 4675.05 1201.64 4666.72 1189.53C4658.52 1177.29 4646.8 1171.17 4631.56 1171.17C4616.33 1171.17 4604.54 1177.29 4596.21 1189.53C4588.01 1201.64 4583.91 1218.96 4583.91 1241.48C4583.91 1263.88 4588.01 1281.2 4596.21 1293.44C4604.54 1305.68 4616.33 1311.8 4631.56 1311.8ZM4813.92 1348.91C4798.3 1348.91 4784.89 1348.45 4773.69 1347.54C4762.62 1346.63 4752.46 1345.13 4743.22 1343.05L4747.91 1305.55C4761.58 1307.63 4773.62 1309.19 4784.04 1310.23C4794.59 1311.28 4804.55 1311.8 4813.92 1311.8C4834.89 1311.8 4850.05 1309.78 4859.43 1305.74C4868.93 1301.58 4873.69 1295 4873.69 1286.02C4873.69 1279.77 4871.99 1275.14 4868.61 1272.15C4865.35 1269.02 4860.28 1266.61 4853.38 1264.92L4805.72 1252.81C4785.28 1247.6 4770.24 1241.16 4760.6 1233.48C4751.1 1225.79 4746.34 1214.14 4746.34 1198.52C4746.34 1175.86 4755 1159.45 4772.32 1149.3C4789.77 1139.14 4817.83 1134.06 4856.5 1134.06C4866.53 1134.06 4875.84 1134.39 4884.43 1135.04C4893.15 1135.56 4902.07 1136.54 4911.19 1137.97L4906.89 1173.91C4896.34 1172.86 4887.03 1172.15 4878.96 1171.76C4870.89 1171.37 4863.01 1171.17 4855.33 1171.17C4832.15 1171.17 4815.35 1173.19 4804.94 1177.23C4794.52 1181.13 4789.31 1187.58 4789.31 1196.56C4789.31 1202.55 4791.46 1206.91 4795.76 1209.65C4800.05 1212.25 4806.63 1214.66 4815.48 1216.88L4853.77 1226.25C4875.51 1231.46 4891.4 1238.42 4901.42 1247.15C4911.58 1255.87 4916.66 1268.57 4916.66 1285.23C4916.66 1307.5 4908.52 1323.71 4892.24 1333.87C4875.97 1343.89 4849.86 1348.91 4813.92 1348.91ZM5070.89 1346.95L5068.16 1285.62L5062.69 1268.44V1214.92C5062.69 1201.12 5057.8 1191.03 5048.04 1184.65C5038.4 1178.14 5024.02 1174.62 5004.88 1174.1L4955.27 1172.73L4959.17 1136.02L5000.97 1136.6C5035.21 1137.12 5060.6 1144.54 5077.14 1158.87C5093.81 1173.06 5102.14 1193.83 5102.14 1221.17V1307.5L5137.3 1311.8V1345L5070.89 1346.95ZM4997.84 1348.91C4976.23 1348.91 4959.5 1343.7 4947.65 1333.28C4935.8 1322.86 4929.88 1308.15 4929.88 1289.14C4929.88 1267.27 4938.01 1250.47 4954.29 1238.75C4970.7 1227.03 4993.81 1221.17 5023.62 1221.17C5035.99 1221.17 5047 1221.95 5056.63 1223.52C5066.4 1224.95 5075.06 1227.16 5082.61 1230.16L5074.02 1258.28C5065.29 1256.33 5056.76 1255.22 5048.43 1254.96C5040.1 1254.57 5031.57 1254.38 5022.84 1254.38C4986.91 1254.38 4968.94 1265.31 4968.94 1287.19C4968.94 1296.3 4972 1303.33 4978.12 1308.28C4984.37 1313.23 4993.16 1315.7 5004.48 1315.7C5017.38 1315.7 5028.12 1313.49 5036.71 1309.06C5045.43 1304.64 5051.95 1298.97 5056.24 1292.07C5060.54 1285.17 5062.69 1278.07 5062.69 1270.78V1248.12L5074.8 1301.25H5058.39L5065.03 1295C5065.03 1306.98 5062.23 1317.01 5056.63 1325.08C5051.16 1333.02 5043.42 1339.01 5033.39 1343.05C5023.36 1346.95 5011.52 1348.91 4997.84 1348.91ZM5219.66 1345V1149.69H5261.06V1345H5219.66ZM5140.75 1345V1308.67H5223.56V1345H5140.75ZM5257.16 1345V1308.67H5324.73V1345H5257.16ZM5152.47 1174.3V1137.97H5261.06V1174.3H5152.47ZM5238.99 1105.16C5231.05 1105.16 5224.21 1102.36 5218.48 1096.76C5212.89 1091.03 5210.09 1084.19 5210.09 1076.25C5210.09 1068.18 5212.89 1061.34 5218.48 1055.74C5224.21 1050.14 5231.05 1047.34 5238.99 1047.34C5247.07 1047.34 5253.9 1050.14 5259.5 1055.74C5265.1 1061.34 5267.9 1068.18 5267.9 1076.25C5267.9 1084.19 5265.1 1091.03 5259.5 1096.76C5253.9 1102.36 5247.07 1105.16 5238.99 1105.16ZM5444.98 1348.91C5409.7 1348.91 5382.42 1339.66 5363.15 1321.17C5344.01 1302.55 5334.44 1275.86 5334.44 1241.09C5334.44 1207.24 5343.49 1180.94 5361.59 1162.19C5379.82 1143.44 5405.79 1134.06 5439.52 1134.06C5459.7 1134.06 5476.95 1137.84 5491.27 1145.39C5505.73 1152.81 5516.01 1163.36 5522.13 1177.03L5490.3 1201.05C5484.44 1191.55 5476.95 1184.19 5467.84 1178.98C5458.72 1173.78 5448.76 1171.17 5437.95 1171.17C5418.42 1171.17 5403.25 1177.1 5392.45 1188.95C5381.64 1200.66 5376.23 1217.4 5376.23 1239.14C5376.23 1262.71 5382.55 1280.74 5395.18 1293.24C5407.94 1305.61 5426.1 1311.8 5449.67 1311.8C5459.31 1311.8 5468.94 1311.34 5478.58 1310.43C5488.21 1309.52 5497.59 1308.28 5506.7 1306.72L5511.39 1343.05C5500.71 1345.39 5489.65 1346.95 5478.19 1347.73C5466.86 1348.52 5455.79 1348.91 5444.98 1348.91ZM5607.42 1348.91C5591.8 1348.91 5578.39 1348.45 5567.19 1347.54C5556.12 1346.63 5545.96 1345.13 5536.72 1343.05L5541.41 1305.55C5555.08 1307.63 5567.12 1309.19 5577.54 1310.23C5588.09 1311.28 5598.05 1311.8 5607.42 1311.8C5628.39 1311.8 5643.55 1309.78 5652.93 1305.74C5662.43 1301.58 5667.19 1295 5667.19 1286.02C5667.19 1279.77 5665.49 1275.14 5662.11 1272.15C5658.85 1269.02 5653.78 1266.61 5646.88 1264.92L5599.22 1252.81C5578.78 1247.6 5563.74 1241.16 5554.1 1233.48C5544.6 1225.79 5539.84 1214.14 5539.84 1198.52C5539.84 1175.86 5548.5 1159.45 5565.82 1149.3C5583.27 1139.14 5611.33 1134.06 5650 1134.06C5660.03 1134.06 5669.34 1134.39 5677.93 1135.04C5686.65 1135.56 5695.57 1136.54 5704.69 1137.97L5700.39 1173.91C5689.84 1172.86 5680.53 1172.15 5672.46 1171.76C5664.39 1171.37 5656.51 1171.17 5648.83 1171.17C5625.65 1171.17 5608.85 1173.19 5598.44 1177.23C5588.02 1181.13 5582.81 1187.58 5582.81 1196.56C5582.81 1202.55 5584.96 1206.91 5589.26 1209.65C5593.55 1212.25 5600.13 1214.66 5608.98 1216.88L5647.27 1226.25C5669.01 1231.46 5684.9 1238.42 5694.92 1247.15C5705.08 1255.87 5710.16 1268.57 5710.16 1285.23C5710.16 1307.5 5702.02 1323.71 5685.74 1333.87C5669.47 1343.89 5643.36 1348.91 5607.42 1348.91Z" fill="black"/>
<path d="M4352.52 1449.98C4330.97 1449.98 4320.2 1438.06 4320.2 1414.23C4320.2 1402.94 4322.92 1394.2 4328.35 1388.01C4333.79 1381.8 4341.46 1378.69 4351.35 1378.69C4356.14 1378.69 4360.3 1379.45 4363.85 1380.98C4367.4 1382.48 4369.99 1384.63 4371.62 1387.43L4364.39 1394.61C4362.92 1392.39 4361.05 1390.68 4358.77 1389.48C4356.53 1388.27 4354.09 1387.67 4351.45 1387.67C4345.17 1387.67 4340.12 1389.93 4336.31 1394.46C4332.54 1398.98 4330.65 1405.41 4330.65 1413.75C4330.65 1431.91 4338.49 1440.99 4354.18 1440.99C4358.9 1440.99 4363.56 1440.02 4368.15 1438.06L4370.39 1446.66C4364.73 1448.87 4358.77 1449.98 4352.52 1449.98ZM4405.63 1449V1415.31C4405.63 1412.02 4404.82 1409.5 4403.19 1407.74C4401.56 1405.95 4399.29 1405.05 4396.36 1405.05C4388.22 1405.05 4384.15 1410 4384.15 1419.9L4381.12 1406.62H4385.12C4385.42 1403.13 4386.69 1400.55 4388.93 1398.85C4391.18 1397.13 4394.47 1396.27 4398.8 1396.27C4404.27 1396.27 4408.5 1397.93 4411.49 1401.25C4414.49 1404.57 4415.98 1409.25 4415.98 1415.31V1449H4405.63ZM4373.8 1449V1375.76H4384.15V1449H4373.8ZM4444.48 1449.98C4437.32 1449.98 4431.76 1447.63 4427.79 1442.95C4423.81 1438.26 4421.83 1431.65 4421.83 1423.12C4421.83 1414.56 4423.81 1407.95 4427.79 1403.3C4431.76 1398.61 4437.32 1396.27 4444.48 1396.27C4451.68 1396.27 4457.24 1398.61 4461.18 1403.3C4465.15 1407.95 4467.14 1414.56 4467.14 1423.12C4467.14 1431.65 4465.15 1438.26 4461.18 1442.95C4457.24 1447.63 4451.68 1449.98 4444.48 1449.98ZM4444.48 1440.7C4448.29 1440.7 4451.22 1439.17 4453.27 1436.11C4455.36 1433.05 4456.4 1428.72 4456.4 1423.12C4456.4 1417.49 4455.36 1413.16 4453.27 1410.13C4451.22 1407.07 4448.29 1405.54 4444.48 1405.54C4440.68 1405.54 4437.73 1407.07 4435.65 1410.13C4433.6 1413.16 4432.57 1417.49 4432.57 1423.12C4432.57 1428.72 4433.6 1433.05 4435.65 1436.11C4437.73 1439.17 4440.68 1440.7 4444.48 1440.7ZM4494.08 1449.98C4486.92 1449.98 4481.35 1447.63 4477.38 1442.95C4473.41 1438.26 4471.42 1431.65 4471.42 1423.12C4471.42 1414.56 4473.41 1407.95 4477.38 1403.3C4481.35 1398.61 4486.92 1396.27 4494.08 1396.27C4501.27 1396.27 4506.84 1398.61 4510.78 1403.3C4514.75 1407.95 4516.73 1414.56 4516.73 1423.12C4516.73 1431.65 4514.75 1438.26 4510.78 1442.95C4506.84 1447.63 4501.27 1449.98 4494.08 1449.98ZM4494.08 1440.7C4497.89 1440.7 4500.82 1439.17 4502.87 1436.11C4504.95 1433.05 4505.99 1428.72 4505.99 1423.12C4505.99 1417.49 4504.95 1413.16 4502.87 1410.13C4500.82 1407.07 4497.89 1405.54 4494.08 1405.54C4490.27 1405.54 4487.32 1407.07 4485.24 1410.13C4483.19 1413.16 4482.16 1417.49 4482.16 1423.12C4482.16 1428.72 4483.19 1433.05 4485.24 1436.11C4487.32 1439.17 4490.27 1440.7 4494.08 1440.7ZM4539.67 1449.98C4535.76 1449.98 4532.41 1449.86 4529.61 1449.63C4526.84 1449.41 4524.3 1449.03 4521.99 1448.51L4523.16 1439.14C4526.58 1439.66 4529.59 1440.05 4532.2 1440.31C4534.83 1440.57 4537.32 1440.7 4539.67 1440.7C4544.91 1440.7 4548.7 1440.19 4551.04 1439.19C4553.42 1438.14 4554.61 1436.5 4554.61 1434.25C4554.61 1432.69 4554.19 1431.54 4553.34 1430.79C4552.53 1430.01 4551.26 1429.4 4549.53 1428.98L4537.62 1425.95C4532.51 1424.65 4528.75 1423.04 4526.34 1421.12C4523.96 1419.2 4522.77 1416.29 4522.77 1412.38C4522.77 1406.71 4524.94 1402.61 4529.27 1400.07C4533.63 1397.54 4540.64 1396.27 4550.31 1396.27C4552.82 1396.27 4555.15 1396.35 4557.29 1396.51C4559.48 1396.64 4561.71 1396.88 4563.98 1397.24L4562.91 1406.23C4560.27 1405.97 4557.95 1405.79 4555.93 1405.69C4553.91 1405.59 4551.94 1405.54 4550.02 1405.54C4544.23 1405.54 4540.03 1406.05 4537.42 1407.06C4534.82 1408.03 4533.52 1409.64 4533.52 1411.89C4533.52 1413.39 4534.05 1414.48 4535.13 1415.16C4536.2 1415.81 4537.85 1416.42 4540.06 1416.97L4549.63 1419.31C4555.07 1420.61 4559.04 1422.36 4561.54 1424.54C4564.08 1426.72 4565.35 1429.89 4565.35 1434.06C4565.35 1439.62 4563.32 1443.68 4559.25 1446.22C4555.18 1448.72 4548.65 1449.98 4539.67 1449.98ZM4597.76 1449.98C4588.94 1449.98 4582.12 1447.67 4577.3 1443.04C4572.51 1438.39 4570.12 1431.71 4570.12 1423.02C4570.12 1414.56 4572.16 1407.98 4576.22 1403.3C4580.29 1398.61 4586.04 1396.27 4593.46 1396.27C4600.46 1396.27 4605.86 1398.38 4609.67 1402.61C4613.51 1406.85 4615.43 1413 4615.43 1421.07C4615.43 1423.45 4615.34 1425.66 4615.14 1427.71H4578.81V1419.8H4606.06C4606.06 1415.15 4604.95 1411.58 4602.74 1409.11C4600.52 1406.6 4597.46 1405.35 4593.56 1405.35C4589.16 1405.35 4585.75 1406.85 4583.3 1409.84C4580.9 1412.83 4579.69 1417.07 4579.69 1422.54C4579.69 1428.52 4581.35 1433.08 4584.67 1436.21C4588.02 1439.33 4592.78 1440.89 4598.93 1440.89C4601.08 1440.89 4603.19 1440.78 4605.28 1440.55C4607.36 1440.29 4609.48 1439.95 4611.62 1439.53L4612.89 1448.61C4609.83 1449.2 4607.04 1449.57 4604.5 1449.73C4601.96 1449.9 4599.71 1449.98 4597.76 1449.98ZM4666.82 1472.44L4666.33 1463.16L4674.44 1462.18C4677.85 1461.76 4680.77 1460.83 4683.18 1459.4C4685.62 1457.97 4687.7 1455.84 4689.43 1453C4691.15 1450.2 4692.66 1446.53 4693.97 1441.97L4706.86 1397.24H4717.6L4702.66 1444.41C4700.71 1450.6 4698.51 1455.58 4696.07 1459.35C4693.66 1463.13 4690.79 1465.96 4687.47 1467.85C4684.18 1469.74 4680.23 1470.94 4675.61 1471.46L4666.82 1472.44ZM4686.45 1449L4665.84 1397.24H4676.58L4693.48 1441.19H4695.04V1449H4686.45ZM4742.05 1449.98C4734.89 1449.98 4729.32 1447.63 4725.35 1442.95C4721.38 1438.26 4719.39 1431.65 4719.39 1423.12C4719.39 1414.56 4721.38 1407.95 4725.35 1403.3C4729.32 1398.61 4734.89 1396.27 4742.05 1396.27C4749.24 1396.27 4754.81 1398.61 4758.75 1403.3C4762.72 1407.95 4764.7 1414.56 4764.7 1423.12C4764.7 1431.65 4762.72 1438.26 4758.75 1442.95C4754.81 1447.63 4749.24 1449.98 4742.05 1449.98ZM4742.05 1440.7C4745.86 1440.7 4748.79 1439.17 4750.84 1436.11C4752.92 1433.05 4753.96 1428.72 4753.96 1423.12C4753.96 1417.49 4752.92 1413.16 4750.84 1410.13C4748.79 1407.07 4745.86 1405.54 4742.05 1405.54C4738.24 1405.54 4735.29 1407.07 4733.21 1410.13C4731.16 1413.16 4730.13 1417.49 4730.13 1423.12C4730.13 1428.72 4731.16 1433.05 4733.21 1436.11C4735.29 1439.17 4738.24 1440.7 4742.05 1440.7ZM4786.56 1449.98C4781.13 1449.98 4776.91 1448.37 4773.92 1445.14C4770.95 1441.89 4769.47 1437.31 4769.47 1431.42V1397.24H4779.82V1431.42C4779.82 1434.38 4780.67 1436.68 4782.36 1438.31C4784.06 1439.9 4786.43 1440.7 4789.49 1440.7C4793.27 1440.7 4796.12 1439.51 4798.04 1437.13C4799.96 1434.73 4800.92 1430.71 4800.92 1425.07L4803.55 1439.04H4800.14C4799.32 1442.55 4797.73 1445.26 4795.35 1447.14C4792.98 1449.03 4790.05 1449.98 4786.56 1449.98ZM4801.8 1449.49L4800.92 1437.09V1428H4811.27V1439.62L4818.4 1440.7V1449L4801.8 1449.49ZM4800.92 1434.35V1397.24H4811.27V1431.42L4800.92 1434.35ZM4837.72 1426.73L4834.69 1410.52H4838.7C4839.28 1401.02 4844.03 1396.27 4852.95 1396.27C4858.29 1396.27 4862.17 1397.8 4864.57 1400.86C4866.98 1403.92 4868.19 1408.86 4868.19 1415.7H4857.93C4857.93 1411.92 4857.36 1409.21 4856.22 1407.54C4855.12 1405.88 4853.31 1405.05 4850.8 1405.05C4846.41 1405.05 4843.12 1406.94 4840.94 1410.72C4838.79 1414.46 4837.72 1419.8 4837.72 1426.73ZM4815.84 1449V1439.92H4850.41V1449H4815.84ZM4827.37 1449V1397.24H4835.77L4837.72 1412.09V1449H4827.37ZM4817.8 1406.32V1397.24H4835.08L4836.06 1406.32H4817.8ZM4968.92 1471.46V1397.24H4978.3L4979.27 1408.18V1471.46H4968.92ZM4993.97 1449.98C4990 1449.98 4986.79 1449.07 4984.35 1447.24C4981.94 1445.42 4980.58 1442.88 4980.25 1439.62H4975.76L4979.27 1424.88C4979.27 1430.22 4980.32 1434.27 4982.4 1437.04C4984.51 1439.8 4987.61 1441.19 4991.68 1441.19C4995.84 1441.19 4999 1439.71 5001.15 1436.74C5003.3 1433.78 5004.37 1429.4 5004.37 1423.61C5004.37 1417.49 5003.3 1412.87 5001.15 1409.74C4999 1406.62 4995.84 1405.05 4991.68 1405.05C4987.61 1405.05 4984.51 1406.44 4982.4 1409.21C4980.32 1411.97 4979.27 1416.02 4979.27 1421.36L4975.76 1406.62H4979.76C4980.22 1403.36 4981.68 1400.82 4984.16 1399C4986.66 1397.18 4989.93 1396.27 4993.97 1396.27C5000.77 1396.27 5005.92 1398.58 5009.4 1403.2C5012.88 1407.82 5014.62 1414.62 5014.62 1423.61C5014.62 1432.27 5012.88 1438.83 5009.4 1443.29C5005.92 1447.75 5000.77 1449.98 4993.97 1449.98ZM5050.25 1449.49L5049.57 1434.16L5048.2 1429.86V1416.48C5048.2 1413.03 5046.98 1410.51 5044.54 1408.91C5042.13 1407.28 5038.54 1406.41 5033.75 1406.28L5021.35 1405.93L5022.32 1396.75L5032.77 1396.9C5041.33 1397.03 5047.68 1398.89 5051.82 1402.47C5055.98 1406.01 5058.07 1411.21 5058.07 1418.04V1439.62L5066.86 1440.7V1449L5050.25 1449.49ZM5031.99 1449.98C5026.59 1449.98 5022.41 1448.67 5019.44 1446.07C5016.48 1443.47 5015 1439.79 5015 1435.04C5015 1429.57 5017.03 1425.37 5021.1 1422.44C5025.21 1419.51 5030.98 1418.04 5038.44 1418.04C5041.53 1418.04 5044.28 1418.24 5046.69 1418.63C5049.13 1418.99 5051.3 1419.54 5053.18 1420.29L5051.04 1427.32C5048.85 1426.83 5046.72 1426.56 5044.64 1426.49C5042.56 1426.39 5040.42 1426.34 5038.24 1426.34C5029.26 1426.34 5024.77 1429.08 5024.77 1434.55C5024.77 1436.83 5025.53 1438.58 5027.06 1439.82C5028.62 1441.06 5030.82 1441.68 5033.65 1441.68C5036.88 1441.68 5039.56 1441.12 5041.71 1440.02C5043.89 1438.91 5045.52 1437.49 5046.59 1435.77C5047.67 1434.04 5048.2 1432.27 5048.2 1430.45V1424.78L5051.23 1438.06H5047.13L5048.79 1436.5C5048.79 1439.49 5048.09 1442 5046.69 1444.02C5045.32 1446.01 5043.39 1447.5 5040.88 1448.51C5038.37 1449.49 5035.41 1449.98 5031.99 1449.98ZM5098.58 1449.98C5090.73 1449.98 5085.05 1448.35 5081.54 1445.09C5078.05 1441.84 5076.31 1436.63 5076.31 1429.47V1420.68H5086.66V1428.98C5086.66 1433.08 5087.66 1436.06 5089.64 1437.92C5091.66 1439.77 5094.96 1440.7 5099.55 1440.7C5101.18 1440.7 5102.91 1440.62 5104.73 1440.46C5106.55 1440.26 5108.64 1440.02 5110.98 1439.72L5112.15 1448.8C5109.87 1449.2 5107.64 1449.49 5105.46 1449.68C5103.31 1449.88 5101.02 1449.98 5098.58 1449.98ZM5076.31 1424.59V1381.62H5086.66V1424.59H5076.31ZM5063.32 1406.32V1397.24H5110.2V1406.32H5063.32ZM5149.54 1449V1415.31C5149.54 1412.02 5148.73 1409.5 5147.1 1407.74C5145.47 1405.95 5143.19 1405.05 5140.26 1405.05C5132.12 1405.05 5128.05 1410 5128.05 1419.9L5125.03 1406.62H5129.03C5129.32 1403.13 5130.59 1400.55 5132.84 1398.85C5135.09 1397.13 5138.37 1396.27 5142.7 1396.27C5148.17 1396.27 5152.4 1397.93 5155.4 1401.25C5158.39 1404.57 5159.89 1409.25 5159.89 1415.31V1449H5149.54ZM5117.7 1449V1375.76H5128.05V1449H5117.7Z" fill="black"/>
</g>
<defs>
<linearGradient id="paint0_linear_68_666" x1="2192.42" y1="-7.65442e-05" x2="3854.58" y2="1791" gradientUnits="userSpaceOnUse">
<stop offset="0.360932" stop-color="#FF5E00"/>
<stop offset="0.96843" stop-color="#FFD47E"/>
</linearGradient>
<radialGradient id="paint1_radial_68_666" cx="0" cy="0" r="1" gradientUnits="userSpaceOnUse" gradientTransform="translate(1035.5 1767.82) rotate(30.4006) scale(793.325 692.519)">
<stop offset="0.360932" stop-color="#FF5E00"/>
<stop offset="0.96843" stop-color="#FFD47E"/>
</radialGradient>
<radialGradient id="paint2_radial_68_666" cx="0" cy="0" r="1" gradientUnits="userSpaceOnUse" gradientTransform="translate(1035.5 1767.82) rotate(30.4006) scale(793.325 692.519)">
<stop offset="0.360932" stop-color="#FF5E00"/>
<stop offset="0.96843" stop-color="#FFD47E"/>
</radialGradient>
<radialGradient id="paint3_radial_68_666" cx="0" cy="0" r="1" gradientUnits="userSpaceOnUse" gradientTransform="translate(1035.5 1767.82) rotate(30.4006) scale(793.325 692.519)">
<stop offset="0.360932" stop-color="#FF5E00"/>
<stop offset="0.96843" stop-color="#FFD47E"/>
</radialGradient>
<radialGradient id="paint4_radial_68_666" cx="0" cy="0" r="1" gradientUnits="userSpaceOnUse" gradientTransform="translate(1035.5 1767.82) rotate(30.4006) scale(793.325 692.519)">
<stop offset="0.360932" stop-color="#FF5E00"/>
<stop offset="0.96843" stop-color="#FFD47E"/>
</radialGradient>
<radialGradient id="paint5_radial_68_666" cx="0" cy="0" r="1" gradientUnits="userSpaceOnUse" gradientTransform="translate(1035.5 1767.82) rotate(30.4006) scale(793.325 692.519)">
<stop offset="0.360932" stop-color="#FF5E00"/>
<stop offset="0.96843" stop-color="#FFD47E"/>
</radialGradient>
<radialGradient id="paint6_radial_68_666" cx="0" cy="0" r="1" gradientUnits="userSpaceOnUse" gradientTransform="translate(1035.5 1767.82) rotate(30.4006) scale(793.325 692.519)">
<stop offset="0.360932" stop-color="#FF5E00"/>
<stop offset="0.96843" stop-color="#FFD47E"/>
</radialGradient>
<radialGradient id="paint7_radial_68_666" cx="0" cy="0" r="1" gradientUnits="userSpaceOnUse" gradientTransform="translate(1035.5 1767.82) rotate(30.4006) scale(793.325 692.519)">
<stop offset="0.360932" stop-color="#FF5E00"/>
<stop offset="0.96843" stop-color="#FFD47E"/>
</radialGradient>
<radialGradient id="paint8_radial_68_666" cx="0" cy="0" r="1" gradientUnits="userSpaceOnUse" gradientTransform="translate(1035.5 1767.82) rotate(30.4006) scale(793.325 692.519)">
<stop offset="0.360932" stop-color="#FF5E00"/>
<stop offset="0.96843" stop-color="#FFD47E"/>
</radialGradient>
<radialGradient id="paint9_radial_68_666" cx="0" cy="0" r="1" gradientUnits="userSpaceOnUse" gradientTransform="translate(1035.5 1767.82) rotate(30.4006) scale(793.325 692.519)">
<stop offset="0.360932" stop-color="#FF5E00"/>
<stop offset="0.96843" stop-color="#FFD47E"/>
</radialGradient>
<radialGradient id="paint10_radial_68_666" cx="0" cy="0" r="1" gradientUnits="userSpaceOnUse" gradientTransform="translate(1035.5 1767.82) rotate(30.4006) scale(793.325 692.519)">
<stop offset="0.360932" stop-color="#FF5E00"/>
<stop offset="0.96843" stop-color="#FFD47E"/>
</radialGradient>
<radialGradient id="paint11_radial_68_666" cx="0" cy="0" r="1" gradientUnits="userSpaceOnUse" gradientTransform="translate(1035.5 1767.82) rotate(30.4006) scale(793.325 692.519)">
<stop offset="0.360932" stop-color="#FF5E00"/>
<stop offset="0.96843" stop-color="#FFD47E"/>
</radialGradient>
<radialGradient id="paint12_radial_68_666" cx="0" cy="0" r="1" gradientUnits="userSpaceOnUse" gradientTransform="translate(1035.5 1767.82) rotate(30.4006) scale(793.325 692.519)">
<stop offset="0.360932" stop-color="#FF5E00"/>
<stop offset="0.96843" stop-color="#FFD47E"/>
</radialGradient>
<radialGradient id="paint13_radial_68_666" cx="0" cy="0" r="1" gradientUnits="userSpaceOnUse" gradientTransform="translate(1035.5 1767.82) rotate(30.4006) scale(793.325 692.519)">
<stop offset="0.360932" stop-color="#FF5E00"/>
<stop offset="0.96843" stop-color="#FFD47E"/>
</radialGradient>
<radialGradient id="paint14_radial_68_666" cx="0" cy="0" r="1" gradientUnits="userSpaceOnUse" gradientTransform="translate(1719.75 562.369) rotate(90) scale(802.913 684.25)">
<stop offset="0.360932" stop-color="#FF5E00"/>
<stop offset="0.96843" stop-color="#FFD47E"/>
</radialGradient>
<radialGradient id="paint15_radial_68_666" cx="0" cy="0" r="1" gradientUnits="userSpaceOnUse" gradientTransform="translate(1719.75 562.369) rotate(90) scale(802.913 684.25)">
<stop offset="0.360932" stop-color="#FF5E00"/>
<stop offset="0.96843" stop-color="#FFD47E"/>
</radialGradient>
<radialGradient id="paint16_radial_68_666" cx="0" cy="0" r="1" gradientUnits="userSpaceOnUse" gradientTransform="translate(1719.75 562.369) rotate(90) scale(802.913 684.25)">
<stop offset="0.360932" stop-color="#FF5E00"/>
<stop offset="0.96843" stop-color="#FFD47E"/>
</radialGradient>
<radialGradient id="paint17_radial_68_666" cx="0" cy="0" r="1" gradientUnits="userSpaceOnUse" gradientTransform="translate(1719.75 562.369) rotate(90) scale(802.913 684.25)">
<stop offset="0.360932" stop-color="#FF5E00"/>
<stop offset="0.96843" stop-color="#FFD47E"/>
</radialGradient>
<radialGradient id="paint18_radial_68_666" cx="0" cy="0" r="1" gradientUnits="userSpaceOnUse" gradientTransform="translate(1719.75 562.369) rotate(90) scale(802.913 684.25)">
<stop offset="0.360932" stop-color="#FF5E00"/>
<stop offset="0.96843" stop-color="#FFD47E"/>
</radialGradient>
<radialGradient id="paint19_radial_68_666" cx="0" cy="0" r="1" gradientUnits="userSpaceOnUse" gradientTransform="translate(1719.75 562.369) rotate(90) scale(802.913 684.25)">
<stop offset="0.360932" stop-color="#FF5E00"/>
<stop offset="0.96843" stop-color="#FFD47E"/>
</radialGradient>
<radialGradient id="paint20_radial_68_666" cx="0" cy="0" r="1" gradientUnits="userSpaceOnUse" gradientTransform="translate(1719.75 562.369) rotate(90) scale(802.913 684.25)">
<stop offset="0.360932" stop-color="#FF5E00"/>
<stop offset="0.96843" stop-color="#FFD47E"/>
</radialGradient>
<radialGradient id="paint21_radial_68_666" cx="0" cy="0" r="1" gradientUnits="userSpaceOnUse" gradientTransform="translate(1719.75 562.369) rotate(90) scale(802.913 684.25)">
<stop offset="0.360932" stop-color="#FF5E00"/>
<stop offset="0.96843" stop-color="#FFD47E"/>
</radialGradient>
<radialGradient id="paint22_radial_68_666" cx="0" cy="0" r="1" gradientUnits="userSpaceOnUse" gradientTransform="translate(1719.75 562.369) rotate(90) scale(802.913 684.25)">
<stop offset="0.360932" stop-color="#FF5E00"/>
<stop offset="0.96843" stop-color="#FFD47E"/>
</radialGradient>
<radialGradient id="paint23_radial_68_666" cx="0" cy="0" r="1" gradientUnits="userSpaceOnUse" gradientTransform="translate(1719.75 562.369) rotate(90) scale(802.913 684.25)">
<stop offset="0.360932" stop-color="#FF5E00"/>
<stop offset="0.96843" stop-color="#FFD47E"/>
</radialGradient>
<radialGradient id="paint24_radial_68_666" cx="0" cy="0" r="1" gradientUnits="userSpaceOnUse" gradientTransform="translate(1719.75 562.369) rotate(90) scale(802.913 684.25)">
<stop offset="0.360932" stop-color="#FF5E00"/>
<stop offset="0.96843" stop-color="#FFD47E"/>
</radialGradient>
<radialGradient id="paint25_radial_68_666" cx="0" cy="0" r="1" gradientUnits="userSpaceOnUse" gradientTransform="translate(1719.75 562.369) rotate(90) scale(802.913 684.25)">
<stop offset="0.360932" stop-color="#FF5E00"/>
<stop offset="0.96843" stop-color="#FFD47E"/>
</radialGradient>
<radialGradient id="paint26_radial_68_666" cx="0" cy="0" r="1" gradientUnits="userSpaceOnUse" gradientTransform="translate(1719.75 562.369) rotate(90) scale(802.913 684.25)">
<stop offset="0.360932" stop-color="#FF5E00"/>
<stop offset="0.96843" stop-color="#FFD47E"/>
</radialGradient>
<radialGradient id="paint27_radial_68_666" cx="0" cy="0" r="1" gradientUnits="userSpaceOnUse" gradientTransform="translate(351.25 562.37) rotate(90) scale(802.913 684.25)">
<stop offset="0.360932" stop-color="#FF5E00"/>
<stop offset="0.96843" stop-color="#FFD47E"/>
</radialGradient>
<radialGradient id="paint28_radial_68_666" cx="0" cy="0" r="1" gradientUnits="userSpaceOnUse" gradientTransform="translate(351.25 562.37) rotate(90) scale(802.913 684.25)">
<stop offset="0.360932" stop-color="#FF5E00"/>
<stop offset="0.96843" stop-color="#FFD47E"/>
</radialGradient>
<radialGradient id="paint29_radial_68_666" cx="0" cy="0" r="1" gradientUnits="userSpaceOnUse" gradientTransform="translate(351.25 562.37) rotate(90) scale(802.913 684.25)">
<stop offset="0.360932" stop-color="#FF5E00"/>
<stop offset="0.96843" stop-color="#FFD47E"/>
</radialGradient>
<radialGradient id="paint30_radial_68_666" cx="0" cy="0" r="1" gradientUnits="userSpaceOnUse" gradientTransform="translate(351.25 562.37) rotate(90) scale(802.913 684.25)">
<stop offset="0.360932" stop-color="#FF5E00"/>
<stop offset="0.96843" stop-color="#FFD47E"/>
</radialGradient>
<radialGradient id="paint31_radial_68_666" cx="0" cy="0" r="1" gradientUnits="userSpaceOnUse" gradientTransform="translate(351.25 562.37) rotate(90) scale(802.913 684.25)">
<stop offset="0.360932" stop-color="#FF5E00"/>
<stop offset="0.96843" stop-color="#FFD47E"/>
</radialGradient>
<radialGradient id="paint32_radial_68_666" cx="0" cy="0" r="1" gradientUnits="userSpaceOnUse" gradientTransform="translate(351.25 562.37) rotate(90) scale(802.913 684.25)">
<stop offset="0.360932" stop-color="#FF5E00"/>
<stop offset="0.96843" stop-color="#FFD47E"/>
</radialGradient>
<radialGradient id="paint33_radial_68_666" cx="0" cy="0" r="1" gradientUnits="userSpaceOnUse" gradientTransform="translate(351.25 562.37) rotate(90) scale(802.913 684.25)">
<stop offset="0.360932" stop-color="#FF5E00"/>
<stop offset="0.96843" stop-color="#FFD47E"/>
</radialGradient>
<radialGradient id="paint34_radial_68_666" cx="0" cy="0" r="1" gradientUnits="userSpaceOnUse" gradientTransform="translate(351.25 562.37) rotate(90) scale(802.913 684.25)">
<stop offset="0.360932" stop-color="#FF5E00"/>
<stop offset="0.96843" stop-color="#FFD47E"/>
</radialGradient>
<radialGradient id="paint35_radial_68_666" cx="0" cy="0" r="1" gradientUnits="userSpaceOnUse" gradientTransform="translate(351.25 562.37) rotate(90) scale(802.913 684.25)">
<stop offset="0.360932" stop-color="#FF5E00"/>
<stop offset="0.96843" stop-color="#FFD47E"/>
</radialGradient>
<radialGradient id="paint36_radial_68_666" cx="0" cy="0" r="1" gradientUnits="userSpaceOnUse" gradientTransform="translate(351.25 562.37) rotate(90) scale(802.913 684.25)">
<stop offset="0.360932" stop-color="#FF5E00"/>
<stop offset="0.96843" stop-color="#FFD47E"/>
</radialGradient>
<radialGradient id="paint37_radial_68_666" cx="0" cy="0" r="1" gradientUnits="userSpaceOnUse" gradientTransform="translate(351.25 562.37) rotate(90) scale(802.913 684.25)">
<stop offset="0.360932" stop-color="#FF5E00"/>
<stop offset="0.96843" stop-color="#FFD47E"/>
</radialGradient>
<radialGradient id="paint38_radial_68_666" cx="0" cy="0" r="1" gradientUnits="userSpaceOnUse" gradientTransform="translate(351.25 562.37) rotate(90) scale(802.913 684.25)">
<stop offset="0.360932" stop-color="#FF5E00"/>
<stop offset="0.96843" stop-color="#FFD47E"/>
</radialGradient>
<radialGradient id="paint39_radial_68_666" cx="0" cy="0" r="1" gradientUnits="userSpaceOnUse" gradientTransform="translate(351.25 562.37) rotate(90) scale(802.913 684.25)">
<stop offset="0.360932" stop-color="#FF5E00"/>
<stop offset="0.96843" stop-color="#FFD47E"/>
</radialGradient>
<radialGradient id="paint40_radial_68_666" cx="0" cy="0" r="1" gradientUnits="userSpaceOnUse" gradientTransform="translate(351.25 1365.68) rotate(90) scale(802.913 684.25)">
<stop offset="0.360932" stop-color="#FF5E00"/>
<stop offset="0.96843" stop-color="#FFD47E"/>
</radialGradient>
<radialGradient id="paint41_radial_68_666" cx="0" cy="0" r="1" gradientUnits="userSpaceOnUse" gradientTransform="translate(351.25 1365.68) rotate(90) scale(802.913 684.25)">
<stop offset="0.360932" stop-color="#FF5E00"/>
<stop offset="0.96843" stop-color="#FFD47E"/>
</radialGradient>
<radialGradient id="paint42_radial_68_666" cx="0" cy="0" r="1" gradientUnits="userSpaceOnUse" gradientTransform="translate(351.25 1365.68) rotate(90) scale(802.913 684.25)">
<stop offset="0.360932" stop-color="#FF5E00"/>
<stop offset="0.96843" stop-color="#FFD47E"/>
</radialGradient>
<radialGradient id="paint43_radial_68_666" cx="0" cy="0" r="1" gradientUnits="userSpaceOnUse" gradientTransform="translate(351.25 1365.68) rotate(90) scale(802.913 684.25)">
<stop offset="0.360932" stop-color="#FF5E00"/>
<stop offset="0.96843" stop-color="#FFD47E"/>
</radialGradient>
<radialGradient id="paint44_radial_68_666" cx="0" cy="0" r="1" gradientUnits="userSpaceOnUse" gradientTransform="translate(351.25 1365.68) rotate(90) scale(802.913 684.25)">
<stop offset="0.360932" stop-color="#FF5E00"/>
<stop offset="0.96843" stop-color="#FFD47E"/>
</radialGradient>
<radialGradient id="paint45_radial_68_666" cx="0" cy="0" r="1" gradientUnits="userSpaceOnUse" gradientTransform="translate(351.25 1365.68) rotate(90) scale(802.913 684.25)">
<stop offset="0.360932" stop-color="#FF5E00"/>
<stop offset="0.96843" stop-color="#FFD47E"/>
</radialGradient>
<radialGradient id="paint46_radial_68_666" cx="0" cy="0" r="1" gradientUnits="userSpaceOnUse" gradientTransform="translate(351.25 1365.68) rotate(90) scale(802.913 684.25)">
<stop offset="0.360932" stop-color="#FF5E00"/>
<stop offset="0.96843" stop-color="#FFD47E"/>
</radialGradient>
<radialGradient id="paint47_radial_68_666" cx="0" cy="0" r="1" gradientUnits="userSpaceOnUse" gradientTransform="translate(351.25 1365.68) rotate(90) scale(802.913 684.25)">
<stop offset="0.360932" stop-color="#FF5E00"/>
<stop offset="0.96843" stop-color="#FFD47E"/>
</radialGradient>
<radialGradient id="paint48_radial_68_666" cx="0" cy="0" r="1" gradientUnits="userSpaceOnUse" gradientTransform="translate(351.25 1365.68) rotate(90) scale(802.913 684.25)">
<stop offset="0.360932" stop-color="#FF5E00"/>
<stop offset="0.96843" stop-color="#FFD47E"/>
</radialGradient>
<radialGradient id="paint49_radial_68_666" cx="0" cy="0" r="1" gradientUnits="userSpaceOnUse" gradientTransform="translate(351.25 1365.68) rotate(90) scale(802.913 684.25)">
<stop offset="0.360932" stop-color="#FF5E00"/>
<stop offset="0.96843" stop-color="#FFD47E"/>
</radialGradient>
<radialGradient id="paint50_radial_68_666" cx="0" cy="0" r="1" gradientUnits="userSpaceOnUse" gradientTransform="translate(351.25 1365.68) rotate(90) scale(802.913 684.25)">
<stop offset="0.360932" stop-color="#FF5E00"/>
<stop offset="0.96843" stop-color="#FFD47E"/>
</radialGradient>
<radialGradient id="paint51_radial_68_666" cx="0" cy="0" r="1" gradientUnits="userSpaceOnUse" gradientTransform="translate(351.25 1365.68) rotate(90) scale(802.913 684.25)">
<stop offset="0.360932" stop-color="#FF5E00"/>
<stop offset="0.96843" stop-color="#FFD47E"/>
</radialGradient>
<radialGradient id="paint52_radial_68_666" cx="0" cy="0" r="1" gradientUnits="userSpaceOnUse" gradientTransform="translate(351.25 1365.68) rotate(90) scale(802.913 684.25)">
<stop offset="0.360932" stop-color="#FF5E00"/>
<stop offset="0.96843" stop-color="#FFD47E"/>
</radialGradient>
<radialGradient id="paint53_radial_68_666" cx="0" cy="0" r="1" gradientUnits="userSpaceOnUse" gradientTransform="translate(1719.75 1365.2) rotate(90) scale(802.913 684.25)">
<stop offset="0.360932" stop-color="#FF5E00"/>
<stop offset="0.96843" stop-color="#FFD47E"/>
</radialGradient>
<radialGradient id="paint54_radial_68_666" cx="0" cy="0" r="1" gradientUnits="userSpaceOnUse" gradientTransform="translate(1719.75 1365.2) rotate(90) scale(802.913 684.25)">
<stop offset="0.360932" stop-color="#FF5E00"/>
<stop offset="0.96843" stop-color="#FFD47E"/>
</radialGradient>
<radialGradient id="paint55_radial_68_666" cx="0" cy="0" r="1" gradientUnits="userSpaceOnUse" gradientTransform="translate(1719.75 1365.2) rotate(90) scale(802.913 684.25)">
<stop offset="0.360932" stop-color="#FF5E00"/>
<stop offset="0.96843" stop-color="#FFD47E"/>
</radialGradient>
<radialGradient id="paint56_radial_68_666" cx="0" cy="0" r="1" gradientUnits="userSpaceOnUse" gradientTransform="translate(1719.75 1365.2) rotate(90) scale(802.913 684.25)">
<stop offset="0.360932" stop-color="#FF5E00"/>
<stop offset="0.96843" stop-color="#FFD47E"/>
</radialGradient>
<radialGradient id="paint57_radial_68_666" cx="0" cy="0" r="1" gradientUnits="userSpaceOnUse" gradientTransform="translate(1719.75 1365.2) rotate(90) scale(802.913 684.25)">
<stop offset="0.360932" stop-color="#FF5E00"/>
<stop offset="0.96843" stop-color="#FFD47E"/>
</radialGradient>
<radialGradient id="paint58_radial_68_666" cx="0" cy="0" r="1" gradientUnits="userSpaceOnUse" gradientTransform="translate(1719.75 1365.2) rotate(90) scale(802.913 684.25)">
<stop offset="0.360932" stop-color="#FF5E00"/>
<stop offset="0.96843" stop-color="#FFD47E"/>
</radialGradient>
<radialGradient id="paint59_radial_68_666" cx="0" cy="0" r="1" gradientUnits="userSpaceOnUse" gradientTransform="translate(1719.75 1365.2) rotate(90) scale(802.913 684.25)">
<stop offset="0.360932" stop-color="#FF5E00"/>
<stop offset="0.96843" stop-color="#FFD47E"/>
</radialGradient>
<radialGradient id="paint60_radial_68_666" cx="0" cy="0" r="1" gradientUnits="userSpaceOnUse" gradientTransform="translate(1719.75 1365.2) rotate(90) scale(802.913 684.25)">
<stop offset="0.360932" stop-color="#FF5E00"/>
<stop offset="0.96843" stop-color="#FFD47E"/>
</radialGradient>
<radialGradient id="paint61_radial_68_666" cx="0" cy="0" r="1" gradientUnits="userSpaceOnUse" gradientTransform="translate(1719.75 1365.2) rotate(90) scale(802.913 684.25)">
<stop offset="0.360932" stop-color="#FF5E00"/>
<stop offset="0.96843" stop-color="#FFD47E"/>
</radialGradient>
<radialGradient id="paint62_radial_68_666" cx="0" cy="0" r="1" gradientUnits="userSpaceOnUse" gradientTransform="translate(1719.75 1365.2) rotate(90) scale(802.913 684.25)">
<stop offset="0.360932" stop-color="#FF5E00"/>
<stop offset="0.96843" stop-color="#FFD47E"/>
</radialGradient>
<radialGradient id="paint63_radial_68_666" cx="0" cy="0" r="1" gradientUnits="userSpaceOnUse" gradientTransform="translate(1719.75 1365.2) rotate(90) scale(802.913 684.25)">
<stop offset="0.360932" stop-color="#FF5E00"/>
<stop offset="0.96843" stop-color="#FFD47E"/>
</radialGradient>
<radialGradient id="paint64_radial_68_666" cx="0" cy="0" r="1" gradientUnits="userSpaceOnUse" gradientTransform="translate(1719.75 1365.2) rotate(90) scale(802.913 684.25)">
<stop offset="0.360932" stop-color="#FF5E00"/>
<stop offset="0.96843" stop-color="#FFD47E"/>
</radialGradient>
<radialGradient id="paint65_radial_68_666" cx="0" cy="0" r="1" gradientUnits="userSpaceOnUse" gradientTransform="translate(1719.75 1365.2) rotate(90) scale(802.913 684.25)">
<stop offset="0.360932" stop-color="#FF5E00"/>
<stop offset="0.96843" stop-color="#FFD47E"/>
</radialGradient>
<radialGradient id="paint66_radial_68_666" cx="0" cy="0" r="1" gradientUnits="userSpaceOnUse" gradientTransform="translate(1035.5 160.913) rotate(30.4006) scale(793.325 692.519)">
<stop offset="0.360932" stop-color="#FF5E00"/>
<stop offset="0.96843" stop-color="#FFD47E"/>
</radialGradient>
<radialGradient id="paint67_radial_68_666" cx="0" cy="0" r="1" gradientUnits="userSpaceOnUse" gradientTransform="translate(1035.5 160.913) rotate(30.4006) scale(793.325 692.519)">
<stop offset="0.360932" stop-color="#FF5E00"/>
<stop offset="0.96843" stop-color="#FFD47E"/>
</radialGradient>
<radialGradient id="paint68_radial_68_666" cx="0" cy="0" r="1" gradientUnits="userSpaceOnUse" gradientTransform="translate(1035.5 160.913) rotate(30.4006) scale(793.325 692.519)">
<stop offset="0.360932" stop-color="#FF5E00"/>
<stop offset="0.96843" stop-color="#FFD47E"/>
</radialGradient>
<radialGradient id="paint69_radial_68_666" cx="0" cy="0" r="1" gradientUnits="userSpaceOnUse" gradientTransform="translate(1035.5 160.913) rotate(30.4006) scale(793.325 692.519)">
<stop offset="0.360932" stop-color="#FF5E00"/>
<stop offset="0.96843" stop-color="#FFD47E"/>
</radialGradient>
<radialGradient id="paint70_radial_68_666" cx="0" cy="0" r="1" gradientUnits="userSpaceOnUse" gradientTransform="translate(1035.5 160.913) rotate(30.4006) scale(793.325 692.519)">
<stop offset="0.360932" stop-color="#FF5E00"/>
<stop offset="0.96843" stop-color="#FFD47E"/>
</radialGradient>
<radialGradient id="paint71_radial_68_666" cx="0" cy="0" r="1" gradientUnits="userSpaceOnUse" gradientTransform="translate(1035.5 160.913) rotate(30.4006) scale(793.325 692.519)">
<stop offset="0.360932" stop-color="#FF5E00"/>
<stop offset="0.96843" stop-color="#FFD47E"/>
</radialGradient>
<radialGradient id="paint72_radial_68_666" cx="0" cy="0" r="1" gradientUnits="userSpaceOnUse" gradientTransform="translate(1035.5 160.913) rotate(30.4006) scale(793.325 692.519)">
<stop offset="0.360932" stop-color="#FF5E00"/>
<stop offset="0.96843" stop-color="#FFD47E"/>
</radialGradient>
<radialGradient id="paint73_radial_68_666" cx="0" cy="0" r="1" gradientUnits="userSpaceOnUse" gradientTransform="translate(1035.5 160.913) rotate(30.4006) scale(793.325 692.519)">
<stop offset="0.360932" stop-color="#FF5E00"/>
<stop offset="0.96843" stop-color="#FFD47E"/>
</radialGradient>
<radialGradient id="paint74_radial_68_666" cx="0" cy="0" r="1" gradientUnits="userSpaceOnUse" gradientTransform="translate(1035.5 160.913) rotate(30.4006) scale(793.325 692.519)">
<stop offset="0.360932" stop-color="#FF5E00"/>
<stop offset="0.96843" stop-color="#FFD47E"/>
</radialGradient>
<radialGradient id="paint75_radial_68_666" cx="0" cy="0" r="1" gradientUnits="userSpaceOnUse" gradientTransform="translate(1035.5 160.913) rotate(30.4006) scale(793.325 692.519)">
<stop offset="0.360932" stop-color="#FF5E00"/>
<stop offset="0.96843" stop-color="#FFD47E"/>
</radialGradient>
<radialGradient id="paint76_radial_68_666" cx="0" cy="0" r="1" gradientUnits="userSpaceOnUse" gradientTransform="translate(1035.5 160.913) rotate(30.4006) scale(793.325 692.519)">
<stop offset="0.360932" stop-color="#FF5E00"/>
<stop offset="0.96843" stop-color="#FFD47E"/>
</radialGradient>
<radialGradient id="paint77_radial_68_666" cx="0" cy="0" r="1" gradientUnits="userSpaceOnUse" gradientTransform="translate(1035.5 160.913) rotate(30.4006) scale(793.325 692.519)">
<stop offset="0.360932" stop-color="#FF5E00"/>
<stop offset="0.96843" stop-color="#FFD47E"/>
</radialGradient>
<radialGradient id="paint78_radial_68_666" cx="0" cy="0" r="1" gradientUnits="userSpaceOnUse" gradientTransform="translate(1035.5 160.913) rotate(30.4006) scale(793.325 692.519)">
<stop offset="0.360932" stop-color="#FF5E00"/>
<stop offset="0.96843" stop-color="#FFD47E"/>
</radialGradient>
<clipPath id="clip0_68_666">
<rect width="6047" height="1791" fill="white"/>
</clipPath>
</defs>
</svg>
