<svg width="828" height="957" viewBox="0 0 828 957" fill="none" xmlns="http://www.w3.org/2000/svg">
<path d="M745.115 669.382L662.315 717.187L745.2 765.195L828 717.391L745.115 669.382Z" fill="url(#paint0_radial_32_1172)"/>
<path d="M579.515 764.992L496.715 812.796L579.6 860.804L662.4 813L579.515 764.992Z" fill="url(#paint1_radial_32_1172)"/>
<path d="M414 860.804L331.2 908.609L414 956.414L496.8 908.609L414 860.804Z" fill="url(#paint2_radial_32_1172)"/>
<path d="M579.515 573.773L496.715 621.578L579.6 669.586L662.4 621.781L579.515 573.773Z" fill="url(#paint3_radial_32_1172)"/>
<path d="M414 669.586L331.2 717.391L414 765.195L496.8 717.391L414 669.586Z" fill="url(#paint4_radial_32_1172)"/>
<path d="M248.4 765.195L165.6 813L248.4 860.804L331.2 812.797L248.4 765.195Z" fill="url(#paint5_radial_32_1172)"/>
<path d="M414 478.367L331.2 526.172L414 573.977L496.8 526.172L414 478.367Z" fill="url(#paint6_radial_32_1172)"/>
<path d="M248.4 573.774L165.6 621.781L248.4 669.586L331.2 621.578L248.4 573.774Z" fill="url(#paint7_radial_32_1172)"/>
<path d="M82.8 669.586L0 717.391L82.8 765.195L165.6 717.188L82.8 669.586Z" fill="url(#paint8_radial_32_1172)"/>
<path d="M248.4 669.586L165.6 717.188L248.4 765.195L331.2 717.391L248.4 669.586Z" fill="url(#paint9_radial_32_1172)"/>
<path d="M414 765.195L331.2 812.797L414 860.804L496.715 812.796L414 765.195Z" fill="url(#paint10_radial_32_1172)"/>
<path d="M414 573.977L331.2 621.578L414 669.586L496.715 621.578L414 573.977Z" fill="url(#paint11_radial_32_1172)"/>
<path d="M579.6 669.586L496.8 717.391L579.515 764.992L662.315 717.187L579.6 669.586Z" fill="url(#paint12_radial_32_1172)"/>
<path d="M828 621.46L745.115 573.773V669.382L828 717.069V621.46Z" fill="url(#paint13_radial_32_1172)"/>
<path d="M662.4 525.851L579.515 478.164V573.773L662.4 621.46V525.851Z" fill="url(#paint14_radial_32_1172)"/>
<path d="M496.8 430.241L414 382.437V478.046L496.8 525.851V430.241Z" fill="url(#paint15_radial_32_1172)"/>
<path d="M828 430.241L745.115 382.555V478.164L828 525.851V430.241Z" fill="url(#paint16_radial_32_1172)"/>
<path d="M662.4 334.632L579.6 286.828V382.437L662.4 430.241V334.632Z" fill="url(#paint17_radial_32_1172)"/>
<path d="M496.8 239.023L414 191.218V286.828L496.8 334.632V239.023Z" fill="url(#paint18_radial_32_1172)"/>
<path d="M828 239.023L745.2 191.218V286.828L828 334.632V239.023Z" fill="url(#paint19_radial_32_1172)"/>
<path d="M662.4 143.414L579.6 95.6092V191.218L662.4 239.023V143.414Z" fill="url(#paint20_radial_32_1172)"/>
<path d="M496.8 47.8046L414 0V95.6092L496.8 143.414V47.8046Z" fill="url(#paint21_radial_32_1172)"/>
<path d="M579.6 191.218L496.8 143.414V239.023L579.6 286.828V191.218Z" fill="url(#paint22_radial_32_1172)"/>
<path d="M579.6 382.437L496.8 334.632V430.241L579.515 478.164L579.6 382.437Z" fill="url(#paint23_radial_32_1172)"/>
<path d="M745.2 286.828L662.4 239.023V334.632L745.115 382.555L745.2 286.828Z" fill="url(#paint24_radial_32_1172)"/>
<path d="M745.115 478.164L662.4 430.241V525.851L745.115 573.773V478.164Z" fill="url(#paint25_radial_32_1172)"/>
<path d="M414 382.437L331.2 430.241V525.851L414 478.046V382.437Z" fill="url(#paint26_radial_32_1172)"/>
<path d="M248.4 478.046L165.6 525.851V621.46L248.4 573.774V478.046Z" fill="url(#paint27_radial_32_1172)"/>
<path d="M82.8 573.655L0 621.46V717.069L82.8 669.586V573.655Z" fill="url(#paint28_radial_32_1172)"/>
<path d="M414 191.218L331.2 239.023V334.632L414 286.828V191.218Z" fill="url(#paint29_radial_32_1172)"/>
<path d="M248.4 286.828L165.6 334.632V430.241L248.4 382.437V286.828Z" fill="url(#paint30_radial_32_1172)"/>
<path d="M82.8 382.437L0 430.241V525.851L82.8 478.046V382.437Z" fill="url(#paint31_radial_32_1172)"/>
<path d="M414 0L331.2 47.8046V143.414L414 95.6092V0Z" fill="url(#paint32_radial_32_1172)"/>
<path d="M248.4 95.6092L165.6 143.414V239.023L248.4 191.218V95.6092Z" fill="url(#paint33_radial_32_1172)"/>
<path d="M82.8 191.218L0 239.023V334.632L82.8 286.828V191.218Z" fill="url(#paint34_radial_32_1172)"/>
<path d="M165.6 239.023L82.8 286.828V382.437L165.6 334.632V239.023Z" fill="url(#paint35_radial_32_1172)"/>
<path d="M165.6 430.241L82.8 478.046V573.655L165.6 525.851V430.241Z" fill="url(#paint36_radial_32_1172)"/>
<path d="M331.2 143.414L248.4 191.218V286.828L331.2 239.023V143.414Z" fill="url(#paint37_radial_32_1172)"/>
<path d="M331.2 334.632L248.4 382.437V478.046L331.2 430.241V334.632Z" fill="url(#paint38_radial_32_1172)"/>
<path d="M414 860.602L331.2 812.797V908.406L414 956.211V860.602Z" fill="url(#paint39_radial_32_1172)"/>
<path d="M248.4 765.195L165.6 717.188V812.797L248.4 860.602L248.4 765.195Z" fill="url(#paint40_radial_32_1172)"/>
<path d="M82.8 669.586L0 621.578V717.188L82.8 764.992V669.586Z" fill="url(#paint41_radial_32_1172)"/>
<path d="M414 669.383L331.2 621.578V717.188L414 764.992V669.383Z" fill="url(#paint42_radial_32_1172)"/>
<path d="M248.4 573.774L165.6 525.969V621.578L248.4 669.383V573.774Z" fill="url(#paint43_radial_32_1172)"/>
<path d="M82.8 478.165L0 430.36V525.969L82.8 573.774V478.165Z" fill="url(#paint44_radial_32_1172)"/>
<path d="M414 478.165L331.2 430.36V525.969L414 573.774V478.165Z" fill="url(#paint45_radial_32_1172)"/>
<path d="M248.4 382.555L165.6 334.751V430.36L248.4 478.165V382.555Z" fill="url(#paint46_radial_32_1172)"/>
<path d="M82.8 286.946L0 239.142V334.751L82.8 382.555V286.946Z" fill="url(#paint47_radial_32_1172)"/>
<path d="M165.6 430.36L82.8 382.555V478.165L165.6 525.969V430.36Z" fill="url(#paint48_radial_32_1172)"/>
<path d="M165.6 621.578L82.8 573.774V669.586L165.6 717.188V621.578Z" fill="url(#paint49_radial_32_1172)"/>
<path d="M331.2 525.969L248.4 478.165V573.774L331.2 621.578V525.969Z" fill="url(#paint50_radial_32_1172)"/>
<path d="M331.2 717.188L248.4 669.383L248.4 765.195L331.2 812.797V717.188Z" fill="url(#paint51_radial_32_1172)"/>
<path d="M827.915 621.578L745.115 669.382V764.992L827.915 717.187V621.578Z" fill="url(#paint52_radial_32_1172)"/>
<path d="M662.315 717.187L579.515 764.992V860.601L662.315 812.796V717.187Z" fill="url(#paint53_radial_32_1172)"/>
<path d="M496.715 812.796L413.915 860.601V956.21L496.715 908.405V812.796Z" fill="url(#paint54_radial_32_1172)"/>
<path d="M827.915 430.359L745.115 478.164V573.773L827.915 525.969V430.359Z" fill="url(#paint55_radial_32_1172)"/>
<path d="M662.315 525.969L579.515 573.773V669.382L662.315 621.578V525.969Z" fill="url(#paint56_radial_32_1172)"/>
<path d="M496.715 621.578L413.915 669.382V764.992L496.715 717.187V621.578Z" fill="url(#paint57_radial_32_1172)"/>
<path d="M827.915 239.141L745.115 286.945V382.555L827.915 334.75V239.141Z" fill="url(#paint58_radial_32_1172)"/>
<path d="M662.315 334.75L579.515 382.555V478.164L662.315 430.359V334.75Z" fill="url(#paint59_radial_32_1172)"/>
<path d="M496.715 430.359L413.915 478.164V573.773L496.715 525.969V430.359Z" fill="url(#paint60_radial_32_1172)"/>
<path d="M579.515 478.164L496.715 525.969V621.578L579.515 573.773V478.164Z" fill="url(#paint61_radial_32_1172)"/>
<path d="M579.515 669.382L496.715 717.187V812.796L579.515 764.992V669.382Z" fill="url(#paint62_radial_32_1172)"/>
<path d="M745.115 382.555L662.315 430.359V525.969L745.115 478.164V382.555Z" fill="url(#paint63_radial_32_1172)"/>
<path d="M745.115 573.773L662.315 621.578V717.187L745.115 669.382V573.773Z" fill="url(#paint64_radial_32_1172)"/>
<path d="M745.2 191.218L662.4 239.023L745.2 286.828L828 239.023L745.2 191.218Z" fill="url(#paint65_radial_32_1172)"/>
<path d="M579.6 286.828L496.8 334.632L579.6 382.437L662.4 334.632L579.6 286.828Z" fill="url(#paint66_radial_32_1172)"/>
<path d="M414 382.437L331.2 430.241L414 478.046L496.8 430.241L414 382.437Z" fill="url(#paint67_radial_32_1172)"/>
<path d="M579.6 95.6092L496.8 143.414L579.6 191.218L662.4 143.414L579.6 95.6092Z" fill="url(#paint68_radial_32_1172)"/>
<path d="M414 191.218L331.2 239.023L414 286.828L496.8 239.023L414 191.218Z" fill="url(#paint69_radial_32_1172)"/>
<path d="M248.4 286.828L165.6 334.632L248.4 382.437L331.2 334.632L248.4 286.828Z" fill="url(#paint70_radial_32_1172)"/>
<path d="M414 0L331.2 47.8046L414 95.6092L496.8 47.8046L414 0Z" fill="url(#paint71_radial_32_1172)"/>
<path d="M248.4 95.6092L165.6 143.414L248.4 191.218L331.2 143.414L248.4 95.6092Z" fill="url(#paint72_radial_32_1172)"/>
<path d="M82.8 191.218L0 239.023L82.8 286.828L165.6 239.023L82.8 191.218Z" fill="url(#paint73_radial_32_1172)"/>
<path d="M248.4 191.218L165.6 239.023L248.4 286.828L331.2 239.023L248.4 191.218Z" fill="url(#paint74_radial_32_1172)"/>
<path d="M414 286.828L331.2 334.632L414 382.437L496.8 334.632L414 286.828Z" fill="url(#paint75_radial_32_1172)"/>
<path d="M414 95.6092L331.2 143.414L414 191.218L496.8 143.414L414 95.6092Z" fill="url(#paint76_radial_32_1172)"/>
<path d="M579.6 191.218L496.8 239.023L579.6 286.828L662.4 239.023L579.6 191.218Z" fill="url(#paint77_radial_32_1172)"/>
<defs>
<radialGradient id="paint0_radial_32_1172" cx="0" cy="0" r="1" gradientUnits="userSpaceOnUse" gradientTransform="translate(414 478.207) rotate(90) scale(478.207 414)">
<stop offset="0.360932" stop-color="#FF5E00"/>
<stop offset="0.96843" stop-color="#FFD47E"/>
</radialGradient>
<radialGradient id="paint1_radial_32_1172" cx="0" cy="0" r="1" gradientUnits="userSpaceOnUse" gradientTransform="translate(414 478.207) rotate(90) scale(478.207 414)">
<stop offset="0.360932" stop-color="#FF5E00"/>
<stop offset="0.96843" stop-color="#FFD47E"/>
</radialGradient>
<radialGradient id="paint2_radial_32_1172" cx="0" cy="0" r="1" gradientUnits="userSpaceOnUse" gradientTransform="translate(414 478.207) rotate(90) scale(478.207 414)">
<stop offset="0.360932" stop-color="#FF5E00"/>
<stop offset="0.96843" stop-color="#FFD47E"/>
</radialGradient>
<radialGradient id="paint3_radial_32_1172" cx="0" cy="0" r="1" gradientUnits="userSpaceOnUse" gradientTransform="translate(414 478.207) rotate(90) scale(478.207 414)">
<stop offset="0.360932" stop-color="#FF5E00"/>
<stop offset="0.96843" stop-color="#FFD47E"/>
</radialGradient>
<radialGradient id="paint4_radial_32_1172" cx="0" cy="0" r="1" gradientUnits="userSpaceOnUse" gradientTransform="translate(414 478.207) rotate(90) scale(478.207 414)">
<stop offset="0.360932" stop-color="#FF5E00"/>
<stop offset="0.96843" stop-color="#FFD47E"/>
</radialGradient>
<radialGradient id="paint5_radial_32_1172" cx="0" cy="0" r="1" gradientUnits="userSpaceOnUse" gradientTransform="translate(414 478.207) rotate(90) scale(478.207 414)">
<stop offset="0.360932" stop-color="#FF5E00"/>
<stop offset="0.96843" stop-color="#FFD47E"/>
</radialGradient>
<radialGradient id="paint6_radial_32_1172" cx="0" cy="0" r="1" gradientUnits="userSpaceOnUse" gradientTransform="translate(414 478.207) rotate(90) scale(478.207 414)">
<stop offset="0.360932" stop-color="#FF5E00"/>
<stop offset="0.96843" stop-color="#FFD47E"/>
</radialGradient>
<radialGradient id="paint7_radial_32_1172" cx="0" cy="0" r="1" gradientUnits="userSpaceOnUse" gradientTransform="translate(414 478.207) rotate(90) scale(478.207 414)">
<stop offset="0.360932" stop-color="#FF5E00"/>
<stop offset="0.96843" stop-color="#FFD47E"/>
</radialGradient>
<radialGradient id="paint8_radial_32_1172" cx="0" cy="0" r="1" gradientUnits="userSpaceOnUse" gradientTransform="translate(414 478.207) rotate(90) scale(478.207 414)">
<stop offset="0.360932" stop-color="#FF5E00"/>
<stop offset="0.96843" stop-color="#FFD47E"/>
</radialGradient>
<radialGradient id="paint9_radial_32_1172" cx="0" cy="0" r="1" gradientUnits="userSpaceOnUse" gradientTransform="translate(414 478.207) rotate(90) scale(478.207 414)">
<stop offset="0.360932" stop-color="#FF5E00"/>
<stop offset="0.96843" stop-color="#FFD47E"/>
</radialGradient>
<radialGradient id="paint10_radial_32_1172" cx="0" cy="0" r="1" gradientUnits="userSpaceOnUse" gradientTransform="translate(414 478.207) rotate(90) scale(478.207 414)">
<stop offset="0.360932" stop-color="#FF5E00"/>
<stop offset="0.96843" stop-color="#FFD47E"/>
</radialGradient>
<radialGradient id="paint11_radial_32_1172" cx="0" cy="0" r="1" gradientUnits="userSpaceOnUse" gradientTransform="translate(414 478.207) rotate(90) scale(478.207 414)">
<stop offset="0.360932" stop-color="#FF5E00"/>
<stop offset="0.96843" stop-color="#FFD47E"/>
</radialGradient>
<radialGradient id="paint12_radial_32_1172" cx="0" cy="0" r="1" gradientUnits="userSpaceOnUse" gradientTransform="translate(414 478.207) rotate(90) scale(478.207 414)">
<stop offset="0.360932" stop-color="#FF5E00"/>
<stop offset="0.96843" stop-color="#FFD47E"/>
</radialGradient>
<radialGradient id="paint13_radial_32_1172" cx="0" cy="0" r="1" gradientUnits="userSpaceOnUse" gradientTransform="translate(414 478.207) rotate(90) scale(478.207 414)">
<stop offset="0.360932" stop-color="#FF5E00"/>
<stop offset="0.96843" stop-color="#FFD47E"/>
</radialGradient>
<radialGradient id="paint14_radial_32_1172" cx="0" cy="0" r="1" gradientUnits="userSpaceOnUse" gradientTransform="translate(414 478.207) rotate(90) scale(478.207 414)">
<stop offset="0.360932" stop-color="#FF5E00"/>
<stop offset="0.96843" stop-color="#FFD47E"/>
</radialGradient>
<radialGradient id="paint15_radial_32_1172" cx="0" cy="0" r="1" gradientUnits="userSpaceOnUse" gradientTransform="translate(414 478.207) rotate(90) scale(478.207 414)">
<stop offset="0.360932" stop-color="#FF5E00"/>
<stop offset="0.96843" stop-color="#FFD47E"/>
</radialGradient>
<radialGradient id="paint16_radial_32_1172" cx="0" cy="0" r="1" gradientUnits="userSpaceOnUse" gradientTransform="translate(414 478.207) rotate(90) scale(478.207 414)">
<stop offset="0.360932" stop-color="#FF5E00"/>
<stop offset="0.96843" stop-color="#FFD47E"/>
</radialGradient>
<radialGradient id="paint17_radial_32_1172" cx="0" cy="0" r="1" gradientUnits="userSpaceOnUse" gradientTransform="translate(414 478.207) rotate(90) scale(478.207 414)">
<stop offset="0.360932" stop-color="#FF5E00"/>
<stop offset="0.96843" stop-color="#FFD47E"/>
</radialGradient>
<radialGradient id="paint18_radial_32_1172" cx="0" cy="0" r="1" gradientUnits="userSpaceOnUse" gradientTransform="translate(414 478.207) rotate(90) scale(478.207 414)">
<stop offset="0.360932" stop-color="#FF5E00"/>
<stop offset="0.96843" stop-color="#FFD47E"/>
</radialGradient>
<radialGradient id="paint19_radial_32_1172" cx="0" cy="0" r="1" gradientUnits="userSpaceOnUse" gradientTransform="translate(414 478.207) rotate(90) scale(478.207 414)">
<stop offset="0.360932" stop-color="#FF5E00"/>
<stop offset="0.96843" stop-color="#FFD47E"/>
</radialGradient>
<radialGradient id="paint20_radial_32_1172" cx="0" cy="0" r="1" gradientUnits="userSpaceOnUse" gradientTransform="translate(414 478.207) rotate(90) scale(478.207 414)">
<stop offset="0.360932" stop-color="#FF5E00"/>
<stop offset="0.96843" stop-color="#FFD47E"/>
</radialGradient>
<radialGradient id="paint21_radial_32_1172" cx="0" cy="0" r="1" gradientUnits="userSpaceOnUse" gradientTransform="translate(414 478.207) rotate(90) scale(478.207 414)">
<stop offset="0.360932" stop-color="#FF5E00"/>
<stop offset="0.96843" stop-color="#FFD47E"/>
</radialGradient>
<radialGradient id="paint22_radial_32_1172" cx="0" cy="0" r="1" gradientUnits="userSpaceOnUse" gradientTransform="translate(414 478.207) rotate(90) scale(478.207 414)">
<stop offset="0.360932" stop-color="#FF5E00"/>
<stop offset="0.96843" stop-color="#FFD47E"/>
</radialGradient>
<radialGradient id="paint23_radial_32_1172" cx="0" cy="0" r="1" gradientUnits="userSpaceOnUse" gradientTransform="translate(414 478.207) rotate(90) scale(478.207 414)">
<stop offset="0.360932" stop-color="#FF5E00"/>
<stop offset="0.96843" stop-color="#FFD47E"/>
</radialGradient>
<radialGradient id="paint24_radial_32_1172" cx="0" cy="0" r="1" gradientUnits="userSpaceOnUse" gradientTransform="translate(414 478.207) rotate(90) scale(478.207 414)">
<stop offset="0.360932" stop-color="#FF5E00"/>
<stop offset="0.96843" stop-color="#FFD47E"/>
</radialGradient>
<radialGradient id="paint25_radial_32_1172" cx="0" cy="0" r="1" gradientUnits="userSpaceOnUse" gradientTransform="translate(414 478.207) rotate(90) scale(478.207 414)">
<stop offset="0.360932" stop-color="#FF5E00"/>
<stop offset="0.96843" stop-color="#FFD47E"/>
</radialGradient>
<radialGradient id="paint26_radial_32_1172" cx="0" cy="0" r="1" gradientUnits="userSpaceOnUse" gradientTransform="translate(414 478.207) rotate(90) scale(478.207 414)">
<stop offset="0.360932" stop-color="#FF5E00"/>
<stop offset="0.96843" stop-color="#FFD47E"/>
</radialGradient>
<radialGradient id="paint27_radial_32_1172" cx="0" cy="0" r="1" gradientUnits="userSpaceOnUse" gradientTransform="translate(414 478.207) rotate(90) scale(478.207 414)">
<stop offset="0.360932" stop-color="#FF5E00"/>
<stop offset="0.96843" stop-color="#FFD47E"/>
</radialGradient>
<radialGradient id="paint28_radial_32_1172" cx="0" cy="0" r="1" gradientUnits="userSpaceOnUse" gradientTransform="translate(414 478.207) rotate(90) scale(478.207 414)">
<stop offset="0.360932" stop-color="#FF5E00"/>
<stop offset="0.96843" stop-color="#FFD47E"/>
</radialGradient>
<radialGradient id="paint29_radial_32_1172" cx="0" cy="0" r="1" gradientUnits="userSpaceOnUse" gradientTransform="translate(414 478.207) rotate(90) scale(478.207 414)">
<stop offset="0.360932" stop-color="#FF5E00"/>
<stop offset="0.96843" stop-color="#FFD47E"/>
</radialGradient>
<radialGradient id="paint30_radial_32_1172" cx="0" cy="0" r="1" gradientUnits="userSpaceOnUse" gradientTransform="translate(414 478.207) rotate(90) scale(478.207 414)">
<stop offset="0.360932" stop-color="#FF5E00"/>
<stop offset="0.96843" stop-color="#FFD47E"/>
</radialGradient>
<radialGradient id="paint31_radial_32_1172" cx="0" cy="0" r="1" gradientUnits="userSpaceOnUse" gradientTransform="translate(414 478.207) rotate(90) scale(478.207 414)">
<stop offset="0.360932" stop-color="#FF5E00"/>
<stop offset="0.96843" stop-color="#FFD47E"/>
</radialGradient>
<radialGradient id="paint32_radial_32_1172" cx="0" cy="0" r="1" gradientUnits="userSpaceOnUse" gradientTransform="translate(414 478.207) rotate(90) scale(478.207 414)">
<stop offset="0.360932" stop-color="#FF5E00"/>
<stop offset="0.96843" stop-color="#FFD47E"/>
</radialGradient>
<radialGradient id="paint33_radial_32_1172" cx="0" cy="0" r="1" gradientUnits="userSpaceOnUse" gradientTransform="translate(414 478.207) rotate(90) scale(478.207 414)">
<stop offset="0.360932" stop-color="#FF5E00"/>
<stop offset="0.96843" stop-color="#FFD47E"/>
</radialGradient>
<radialGradient id="paint34_radial_32_1172" cx="0" cy="0" r="1" gradientUnits="userSpaceOnUse" gradientTransform="translate(414 478.207) rotate(90) scale(478.207 414)">
<stop offset="0.360932" stop-color="#FF5E00"/>
<stop offset="0.96843" stop-color="#FFD47E"/>
</radialGradient>
<radialGradient id="paint35_radial_32_1172" cx="0" cy="0" r="1" gradientUnits="userSpaceOnUse" gradientTransform="translate(414 478.207) rotate(90) scale(478.207 414)">
<stop offset="0.360932" stop-color="#FF5E00"/>
<stop offset="0.96843" stop-color="#FFD47E"/>
</radialGradient>
<radialGradient id="paint36_radial_32_1172" cx="0" cy="0" r="1" gradientUnits="userSpaceOnUse" gradientTransform="translate(414 478.207) rotate(90) scale(478.207 414)">
<stop offset="0.360932" stop-color="#FF5E00"/>
<stop offset="0.96843" stop-color="#FFD47E"/>
</radialGradient>
<radialGradient id="paint37_radial_32_1172" cx="0" cy="0" r="1" gradientUnits="userSpaceOnUse" gradientTransform="translate(414 478.207) rotate(90) scale(478.207 414)">
<stop offset="0.360932" stop-color="#FF5E00"/>
<stop offset="0.96843" stop-color="#FFD47E"/>
</radialGradient>
<radialGradient id="paint38_radial_32_1172" cx="0" cy="0" r="1" gradientUnits="userSpaceOnUse" gradientTransform="translate(414 478.207) rotate(90) scale(478.207 414)">
<stop offset="0.360932" stop-color="#FF5E00"/>
<stop offset="0.96843" stop-color="#FFD47E"/>
</radialGradient>
<radialGradient id="paint39_radial_32_1172" cx="0" cy="0" r="1" gradientUnits="userSpaceOnUse" gradientTransform="translate(414 478.207) rotate(90) scale(478.207 414)">
<stop offset="0.360932" stop-color="#FF5E00"/>
<stop offset="0.96843" stop-color="#FFD47E"/>
</radialGradient>
<radialGradient id="paint40_radial_32_1172" cx="0" cy="0" r="1" gradientUnits="userSpaceOnUse" gradientTransform="translate(414 478.207) rotate(90) scale(478.207 414)">
<stop offset="0.360932" stop-color="#FF5E00"/>
<stop offset="0.96843" stop-color="#FFD47E"/>
</radialGradient>
<radialGradient id="paint41_radial_32_1172" cx="0" cy="0" r="1" gradientUnits="userSpaceOnUse" gradientTransform="translate(414 478.207) rotate(90) scale(478.207 414)">
<stop offset="0.360932" stop-color="#FF5E00"/>
<stop offset="0.96843" stop-color="#FFD47E"/>
</radialGradient>
<radialGradient id="paint42_radial_32_1172" cx="0" cy="0" r="1" gradientUnits="userSpaceOnUse" gradientTransform="translate(414 478.207) rotate(90) scale(478.207 414)">
<stop offset="0.360932" stop-color="#FF5E00"/>
<stop offset="0.96843" stop-color="#FFD47E"/>
</radialGradient>
<radialGradient id="paint43_radial_32_1172" cx="0" cy="0" r="1" gradientUnits="userSpaceOnUse" gradientTransform="translate(414 478.207) rotate(90) scale(478.207 414)">
<stop offset="0.360932" stop-color="#FF5E00"/>
<stop offset="0.96843" stop-color="#FFD47E"/>
</radialGradient>
<radialGradient id="paint44_radial_32_1172" cx="0" cy="0" r="1" gradientUnits="userSpaceOnUse" gradientTransform="translate(414 478.207) rotate(90) scale(478.207 414)">
<stop offset="0.360932" stop-color="#FF5E00"/>
<stop offset="0.96843" stop-color="#FFD47E"/>
</radialGradient>
<radialGradient id="paint45_radial_32_1172" cx="0" cy="0" r="1" gradientUnits="userSpaceOnUse" gradientTransform="translate(414 478.207) rotate(90) scale(478.207 414)">
<stop offset="0.360932" stop-color="#FF5E00"/>
<stop offset="0.96843" stop-color="#FFD47E"/>
</radialGradient>
<radialGradient id="paint46_radial_32_1172" cx="0" cy="0" r="1" gradientUnits="userSpaceOnUse" gradientTransform="translate(414 478.207) rotate(90) scale(478.207 414)">
<stop offset="0.360932" stop-color="#FF5E00"/>
<stop offset="0.96843" stop-color="#FFD47E"/>
</radialGradient>
<radialGradient id="paint47_radial_32_1172" cx="0" cy="0" r="1" gradientUnits="userSpaceOnUse" gradientTransform="translate(414 478.207) rotate(90) scale(478.207 414)">
<stop offset="0.360932" stop-color="#FF5E00"/>
<stop offset="0.96843" stop-color="#FFD47E"/>
</radialGradient>
<radialGradient id="paint48_radial_32_1172" cx="0" cy="0" r="1" gradientUnits="userSpaceOnUse" gradientTransform="translate(414 478.207) rotate(90) scale(478.207 414)">
<stop offset="0.360932" stop-color="#FF5E00"/>
<stop offset="0.96843" stop-color="#FFD47E"/>
</radialGradient>
<radialGradient id="paint49_radial_32_1172" cx="0" cy="0" r="1" gradientUnits="userSpaceOnUse" gradientTransform="translate(414 478.207) rotate(90) scale(478.207 414)">
<stop offset="0.360932" stop-color="#FF5E00"/>
<stop offset="0.96843" stop-color="#FFD47E"/>
</radialGradient>
<radialGradient id="paint50_radial_32_1172" cx="0" cy="0" r="1" gradientUnits="userSpaceOnUse" gradientTransform="translate(414 478.207) rotate(90) scale(478.207 414)">
<stop offset="0.360932" stop-color="#FF5E00"/>
<stop offset="0.96843" stop-color="#FFD47E"/>
</radialGradient>
<radialGradient id="paint51_radial_32_1172" cx="0" cy="0" r="1" gradientUnits="userSpaceOnUse" gradientTransform="translate(414 478.207) rotate(90) scale(478.207 414)">
<stop offset="0.360932" stop-color="#FF5E00"/>
<stop offset="0.96843" stop-color="#FFD47E"/>
</radialGradient>
<radialGradient id="paint52_radial_32_1172" cx="0" cy="0" r="1" gradientUnits="userSpaceOnUse" gradientTransform="translate(414 478.207) rotate(90) scale(478.207 414)">
<stop offset="0.360932" stop-color="#FF5E00"/>
<stop offset="0.96843" stop-color="#FFD47E"/>
</radialGradient>
<radialGradient id="paint53_radial_32_1172" cx="0" cy="0" r="1" gradientUnits="userSpaceOnUse" gradientTransform="translate(414 478.207) rotate(90) scale(478.207 414)">
<stop offset="0.360932" stop-color="#FF5E00"/>
<stop offset="0.96843" stop-color="#FFD47E"/>
</radialGradient>
<radialGradient id="paint54_radial_32_1172" cx="0" cy="0" r="1" gradientUnits="userSpaceOnUse" gradientTransform="translate(414 478.207) rotate(90) scale(478.207 414)">
<stop offset="0.360932" stop-color="#FF5E00"/>
<stop offset="0.96843" stop-color="#FFD47E"/>
</radialGradient>
<radialGradient id="paint55_radial_32_1172" cx="0" cy="0" r="1" gradientUnits="userSpaceOnUse" gradientTransform="translate(414 478.207) rotate(90) scale(478.207 414)">
<stop offset="0.360932" stop-color="#FF5E00"/>
<stop offset="0.96843" stop-color="#FFD47E"/>
</radialGradient>
<radialGradient id="paint56_radial_32_1172" cx="0" cy="0" r="1" gradientUnits="userSpaceOnUse" gradientTransform="translate(414 478.207) rotate(90) scale(478.207 414)">
<stop offset="0.360932" stop-color="#FF5E00"/>
<stop offset="0.96843" stop-color="#FFD47E"/>
</radialGradient>
<radialGradient id="paint57_radial_32_1172" cx="0" cy="0" r="1" gradientUnits="userSpaceOnUse" gradientTransform="translate(414 478.207) rotate(90) scale(478.207 414)">
<stop offset="0.360932" stop-color="#FF5E00"/>
<stop offset="0.96843" stop-color="#FFD47E"/>
</radialGradient>
<radialGradient id="paint58_radial_32_1172" cx="0" cy="0" r="1" gradientUnits="userSpaceOnUse" gradientTransform="translate(414 478.207) rotate(90) scale(478.207 414)">
<stop offset="0.360932" stop-color="#FF5E00"/>
<stop offset="0.96843" stop-color="#FFD47E"/>
</radialGradient>
<radialGradient id="paint59_radial_32_1172" cx="0" cy="0" r="1" gradientUnits="userSpaceOnUse" gradientTransform="translate(414 478.207) rotate(90) scale(478.207 414)">
<stop offset="0.360932" stop-color="#FF5E00"/>
<stop offset="0.96843" stop-color="#FFD47E"/>
</radialGradient>
<radialGradient id="paint60_radial_32_1172" cx="0" cy="0" r="1" gradientUnits="userSpaceOnUse" gradientTransform="translate(414 478.207) rotate(90) scale(478.207 414)">
<stop offset="0.360932" stop-color="#FF5E00"/>
<stop offset="0.96843" stop-color="#FFD47E"/>
</radialGradient>
<radialGradient id="paint61_radial_32_1172" cx="0" cy="0" r="1" gradientUnits="userSpaceOnUse" gradientTransform="translate(414 478.207) rotate(90) scale(478.207 414)">
<stop offset="0.360932" stop-color="#FF5E00"/>
<stop offset="0.96843" stop-color="#FFD47E"/>
</radialGradient>
<radialGradient id="paint62_radial_32_1172" cx="0" cy="0" r="1" gradientUnits="userSpaceOnUse" gradientTransform="translate(414 478.207) rotate(90) scale(478.207 414)">
<stop offset="0.360932" stop-color="#FF5E00"/>
<stop offset="0.96843" stop-color="#FFD47E"/>
</radialGradient>
<radialGradient id="paint63_radial_32_1172" cx="0" cy="0" r="1" gradientUnits="userSpaceOnUse" gradientTransform="translate(414 478.207) rotate(90) scale(478.207 414)">
<stop offset="0.360932" stop-color="#FF5E00"/>
<stop offset="0.96843" stop-color="#FFD47E"/>
</radialGradient>
<radialGradient id="paint64_radial_32_1172" cx="0" cy="0" r="1" gradientUnits="userSpaceOnUse" gradientTransform="translate(414 478.207) rotate(90) scale(478.207 414)">
<stop offset="0.360932" stop-color="#FF5E00"/>
<stop offset="0.96843" stop-color="#FFD47E"/>
</radialGradient>
<radialGradient id="paint65_radial_32_1172" cx="0" cy="0" r="1" gradientUnits="userSpaceOnUse" gradientTransform="translate(414 478.207) rotate(90) scale(478.207 414)">
<stop offset="0.360932" stop-color="#FF5E00"/>
<stop offset="0.96843" stop-color="#FFD47E"/>
</radialGradient>
<radialGradient id="paint66_radial_32_1172" cx="0" cy="0" r="1" gradientUnits="userSpaceOnUse" gradientTransform="translate(414 478.207) rotate(90) scale(478.207 414)">
<stop offset="0.360932" stop-color="#FF5E00"/>
<stop offset="0.96843" stop-color="#FFD47E"/>
</radialGradient>
<radialGradient id="paint67_radial_32_1172" cx="0" cy="0" r="1" gradientUnits="userSpaceOnUse" gradientTransform="translate(414 478.207) rotate(90) scale(478.207 414)">
<stop offset="0.360932" stop-color="#FF5E00"/>
<stop offset="0.96843" stop-color="#FFD47E"/>
</radialGradient>
<radialGradient id="paint68_radial_32_1172" cx="0" cy="0" r="1" gradientUnits="userSpaceOnUse" gradientTransform="translate(414 478.207) rotate(90) scale(478.207 414)">
<stop offset="0.360932" stop-color="#FF5E00"/>
<stop offset="0.96843" stop-color="#FFD47E"/>
</radialGradient>
<radialGradient id="paint69_radial_32_1172" cx="0" cy="0" r="1" gradientUnits="userSpaceOnUse" gradientTransform="translate(414 478.207) rotate(90) scale(478.207 414)">
<stop offset="0.360932" stop-color="#FF5E00"/>
<stop offset="0.96843" stop-color="#FFD47E"/>
</radialGradient>
<radialGradient id="paint70_radial_32_1172" cx="0" cy="0" r="1" gradientUnits="userSpaceOnUse" gradientTransform="translate(414 478.207) rotate(90) scale(478.207 414)">
<stop offset="0.360932" stop-color="#FF5E00"/>
<stop offset="0.96843" stop-color="#FFD47E"/>
</radialGradient>
<radialGradient id="paint71_radial_32_1172" cx="0" cy="0" r="1" gradientUnits="userSpaceOnUse" gradientTransform="translate(414 478.207) rotate(90) scale(478.207 414)">
<stop offset="0.360932" stop-color="#FF5E00"/>
<stop offset="0.96843" stop-color="#FFD47E"/>
</radialGradient>
<radialGradient id="paint72_radial_32_1172" cx="0" cy="0" r="1" gradientUnits="userSpaceOnUse" gradientTransform="translate(414 478.207) rotate(90) scale(478.207 414)">
<stop offset="0.360932" stop-color="#FF5E00"/>
<stop offset="0.96843" stop-color="#FFD47E"/>
</radialGradient>
<radialGradient id="paint73_radial_32_1172" cx="0" cy="0" r="1" gradientUnits="userSpaceOnUse" gradientTransform="translate(414 478.207) rotate(90) scale(478.207 414)">
<stop offset="0.360932" stop-color="#FF5E00"/>
<stop offset="0.96843" stop-color="#FFD47E"/>
</radialGradient>
<radialGradient id="paint74_radial_32_1172" cx="0" cy="0" r="1" gradientUnits="userSpaceOnUse" gradientTransform="translate(414 478.207) rotate(90) scale(478.207 414)">
<stop offset="0.360932" stop-color="#FF5E00"/>
<stop offset="0.96843" stop-color="#FFD47E"/>
</radialGradient>
<radialGradient id="paint75_radial_32_1172" cx="0" cy="0" r="1" gradientUnits="userSpaceOnUse" gradientTransform="translate(414 478.207) rotate(90) scale(478.207 414)">
<stop offset="0.360932" stop-color="#FF5E00"/>
<stop offset="0.96843" stop-color="#FFD47E"/>
</radialGradient>
<radialGradient id="paint76_radial_32_1172" cx="0" cy="0" r="1" gradientUnits="userSpaceOnUse" gradientTransform="translate(414 478.207) rotate(90) scale(478.207 414)">
<stop offset="0.360932" stop-color="#FF5E00"/>
<stop offset="0.96843" stop-color="#FFD47E"/>
</radialGradient>
<radialGradient id="paint77_radial_32_1172" cx="0" cy="0" r="1" gradientUnits="userSpaceOnUse" gradientTransform="translate(414 478.207) rotate(90) scale(478.207 414)">
<stop offset="0.360932" stop-color="#FF5E00"/>
<stop offset="0.96843" stop-color="#FFD47E"/>
</radialGradient>
</defs>
</svg>
